<svg width="192" height="30" viewBox="0 0 192 30" fill="none" xmlns="http://www.w3.org/2000/svg">
<g clip-path="url(#clip0_102_294)">
<path d="M3.01562 26.25H27.3906M4.89062 3.75V26.25M18.0156 3.75V26.25M25.5156 9.375V26.25M8.64062 8.4375H9.57812M8.64062 12.1875H9.57812M8.64062 15.9375H9.57812M13.3281 8.4375H14.2656M13.3281 12.1875H14.2656M13.3281 15.9375H14.2656M8.64062 26.25V22.0312C8.64062 21.255 9.27063 20.625 10.0469 20.625H12.8594C13.6356 20.625 14.2656 21.255 14.2656 22.0312V26.25M3.95312 3.75H18.9531M18.0156 9.375H26.4531M21.7656 14.0625H21.7756V14.0725H21.7656V14.0625ZM21.7656 17.8125H21.7756V17.8225H21.7656V17.8125ZM21.7656 21.5625H21.7756V21.5725H21.7656V21.5625Z" stroke="#FAFAFA" stroke-width="1.875" stroke-linecap="round" stroke-linejoin="round"/>
<path d="M43.1931 21.1924V20.5984C43.6491 20.5864 43.9611 20.4844 44.1291 20.2924C44.2971 20.0884 44.3871 19.8184 44.3991 19.4824C44.4231 19.1344 44.4351 18.7384 44.4351 18.2944V10.7344C44.4351 10.4104 44.4411 10.1344 44.4531 9.90638C44.4651 9.66638 44.4771 9.46838 44.4891 9.31238C44.2731 9.32438 44.0571 9.33638 43.8411 9.34838C43.6251 9.36038 43.4091 9.37238 43.1931 9.38438V8.59238C43.8531 8.58038 44.5131 8.57438 45.1731 8.57438C45.8451 8.56238 46.5411 8.55638 47.2611 8.55638C48.6531 8.55638 49.7391 8.80238 50.5191 9.29438C51.3111 9.78638 51.6951 10.5664 51.6711 11.6344C51.6711 12.0184 51.5571 12.4024 51.3291 12.7864C51.1131 13.1704 50.7831 13.5124 50.3391 13.8124C49.9071 14.1004 49.3611 14.3044 48.7011 14.4244V14.4604C50.0211 14.4604 51.0171 14.7664 51.6891 15.3784C52.3611 15.9784 52.6971 16.7404 52.6971 17.6644C52.6971 18.3964 52.5111 19.0264 52.1391 19.5544C51.7671 20.0824 51.2631 20.4904 50.6271 20.7784C49.9911 21.0544 49.2651 21.1924 48.4491 21.1924H43.1931ZM45.9471 20.4724C46.1391 20.4844 46.3671 20.4964 46.6311 20.5084C46.9071 20.5084 47.1591 20.5084 47.3871 20.5084C47.6271 20.5084 47.7831 20.5084 47.8551 20.5084C48.7791 20.5084 49.5231 20.2804 50.0871 19.8244C50.6631 19.3564 50.9511 18.6724 50.9511 17.7724C50.9511 17.0404 50.8071 16.4704 50.5191 16.0624C50.2311 15.6544 49.8531 15.3664 49.3851 15.1984C48.9171 15.0304 48.4071 14.9464 47.8551 14.9464C47.4951 14.9464 47.1651 14.9524 46.8651 14.9644C46.5771 14.9644 46.2891 14.9764 46.0011 15.0004V19.0684C46.0011 19.3924 45.9951 19.6684 45.9831 19.8964C45.9831 20.1244 45.9711 20.3164 45.9471 20.4724ZM46.0011 14.2984L47.3151 14.2624C47.9991 14.2504 48.5391 14.1124 48.9351 13.8484C49.3311 13.5724 49.6131 13.2304 49.7811 12.8224C49.9611 12.4144 50.0451 11.9884 50.0331 11.5444C50.0211 10.8964 49.8711 10.4044 49.5831 10.0684C49.3071 9.73238 48.9651 9.50438 48.5571 9.38438C48.1491 9.26438 47.7471 9.20438 47.3511 9.20438C46.9551 9.20438 46.6611 9.25838 46.4691 9.36638C46.2771 9.47438 46.1511 9.65438 46.0911 9.90638C46.0311 10.1584 46.0011 10.5064 46.0011 10.9504V14.2984ZM58.7673 21.4804C58.1193 21.4804 57.5733 21.3604 57.1293 21.1204C56.6973 20.8804 56.3673 20.4724 56.1393 19.8964C55.9233 19.3204 55.8153 18.5404 55.8153 17.5564V14.3524C55.8153 14.1604 55.8153 13.9684 55.8153 13.7764C55.8273 13.5844 55.8513 13.3864 55.8873 13.1824C55.6833 13.1944 55.4733 13.2064 55.2573 13.2184C55.0533 13.2184 54.8493 13.2244 54.6453 13.2364V12.4984H55.2033C55.7193 12.4984 56.0913 12.4504 56.3193 12.3544C56.5593 12.2464 56.7453 12.1324 56.8773 12.0124H57.3993V17.5024C57.3993 18.5344 57.5433 19.3084 57.8313 19.8244C58.1313 20.3284 58.6353 20.5744 59.3433 20.5624C59.7993 20.5504 60.2313 20.4124 60.6393 20.1484C61.0593 19.8724 61.3953 19.5484 61.6473 19.1764V14.5504C61.6473 14.2624 61.6533 14.0164 61.6653 13.8124C61.6773 13.5964 61.7013 13.3864 61.7373 13.1824C61.5213 13.1944 61.3053 13.2064 61.0893 13.2184C60.8733 13.2184 60.6573 13.2244 60.4413 13.2364V12.4984H60.9993C61.5153 12.4984 61.8873 12.4504 62.1153 12.3544C62.3553 12.2464 62.5413 12.1324 62.6733 12.0124H63.1953L63.1773 18.8164C63.1773 19.0084 63.1713 19.2784 63.1593 19.6264C63.1473 19.9744 63.1293 20.2684 63.1053 20.5084C63.3213 20.4964 63.5373 20.4844 63.7533 20.4724C63.9693 20.4604 64.1853 20.4484 64.4013 20.4364V21.1924H61.8273C61.7913 20.9884 61.7613 20.7964 61.7373 20.6164C61.7253 20.4364 61.7133 20.2684 61.7013 20.1124C61.3293 20.4844 60.8793 20.8084 60.3513 21.0844C59.8233 21.3484 59.2953 21.4804 58.7673 21.4804ZM67.8901 26.0704C67.5181 26.0704 67.2001 25.9804 66.9361 25.8004C66.6721 25.6204 66.5401 25.3444 66.5401 24.9724C66.5401 24.7564 66.6121 24.5584 66.7561 24.3784C66.9001 24.1984 67.0861 24.1084 67.3141 24.1084C67.6021 24.0964 67.7941 24.1864 67.8901 24.3784C67.9981 24.5704 68.0521 24.7384 68.0521 24.8824C68.0521 24.9184 68.0521 24.9544 68.0521 24.9904C68.0521 25.0384 68.0461 25.0864 68.0341 25.1344C68.0701 25.1584 68.1361 25.1704 68.2321 25.1704C68.3761 25.1704 68.5321 25.1104 68.7001 24.9904C68.8681 24.8704 69.0181 24.6964 69.1501 24.4684C69.3061 24.2044 69.4861 23.8084 69.6901 23.2804C69.9061 22.7524 70.1461 22.1224 70.4101 21.3904L67.6021 15.3784C67.2901 14.7064 67.0621 14.1724 66.9181 13.7764C66.7861 13.3804 66.6961 13.0864 66.6481 12.8944L65.7841 12.9304V12.1924H69.5101V12.7324H69.4381C68.9341 12.7684 68.6581 12.9604 68.6101 13.3084C68.5621 13.6444 68.7001 14.1604 69.0241 14.8564L71.1301 19.3744C71.4061 18.6064 71.6701 17.8504 71.9221 17.1064C72.1741 16.3504 72.4261 15.6004 72.6781 14.8564C72.7741 14.5924 72.8701 14.3224 72.9661 14.0464C73.0741 13.7584 73.1761 13.5064 73.2721 13.2904C73.3801 13.0624 73.4761 12.9184 73.5601 12.8584L72.3181 12.9304V12.1924H75.1441V12.7324C74.7001 12.9004 74.3641 13.1824 74.1361 13.5784C73.9201 13.9624 73.6981 14.4604 73.4701 15.0724L71.2201 21.3544C70.8601 22.3624 70.5301 23.2144 70.2301 23.9104C69.9301 24.6184 69.6001 25.1524 69.2401 25.5124C68.8801 25.8844 68.4301 26.0704 67.8901 26.0704ZM76.9139 20.6524C77.2859 20.6524 77.5439 20.5624 77.6879 20.3824C77.8319 20.1904 77.9159 19.9324 77.9399 19.6084C77.9639 19.2724 77.9759 18.8884 77.9759 18.4564V14.3524C77.9759 14.1604 77.9819 13.9804 77.9939 13.8124C78.0059 13.6324 78.0239 13.4224 78.0479 13.1824C77.8319 13.1944 77.6159 13.2064 77.3999 13.2184C77.1959 13.2304 76.9859 13.2424 76.7699 13.2544V12.4984C77.2979 12.4984 77.7059 12.4744 77.9939 12.4264C78.2819 12.3784 78.4979 12.3184 78.6419 12.2464C78.7979 12.1744 78.9179 12.0964 79.0019 12.0124H79.5239V19.2844C79.5239 19.5244 79.5179 19.7404 79.5059 19.9324C79.5059 20.1124 79.4879 20.3044 79.4519 20.5084C79.6439 20.4964 79.8299 20.4904 80.0099 20.4904C80.2019 20.4784 80.3939 20.4664 80.5859 20.4544V21.1924H76.9139V20.6524ZM78.6419 10.2304C78.3899 10.2304 78.1679 10.1284 77.9759 9.92438C77.7839 9.72038 77.6879 9.46838 77.6879 9.16838C77.6879 8.86838 77.7839 8.61638 77.9759 8.41238C78.1799 8.19638 78.4079 8.08838 78.6599 8.08838C78.9359 8.08838 79.1639 8.19638 79.3439 8.41238C79.5359 8.61638 79.6319 8.86838 79.6319 9.16838C79.6319 9.46838 79.5299 9.72038 79.3259 9.92438C79.1339 10.1284 78.9059 10.2304 78.6419 10.2304ZM82.8764 21.1924V20.6524C83.2484 20.6524 83.5064 20.5624 83.6504 20.3824C83.7944 20.1904 83.8784 19.9324 83.9024 19.6084C83.9264 19.2724 83.9384 18.8884 83.9384 18.4564L83.9564 14.3524C83.9564 14.1604 83.9564 13.9684 83.9564 13.7764C83.9684 13.5844 83.9924 13.3864 84.0284 13.1824C83.8124 13.1944 83.5964 13.2064 83.3804 13.2184C83.1764 13.2304 82.9664 13.2424 82.7504 13.2544V12.4984C83.2784 12.4984 83.6744 12.4744 83.9384 12.4264C84.2144 12.3784 84.4184 12.3184 84.5504 12.2464C84.6824 12.1744 84.7904 12.0964 84.8744 12.0124H85.3964C85.4084 12.0964 85.4144 12.1924 85.4144 12.3004C85.4264 12.4084 85.4384 12.5284 85.4504 12.6604C85.4624 12.7924 85.4684 12.9424 85.4684 13.1104C85.7324 12.8824 86.0204 12.6784 86.3324 12.4984C86.6564 12.3184 86.9924 12.1744 87.3404 12.0664C87.7004 11.9584 88.0544 11.9044 88.4024 11.9044C89.4464 11.9044 90.2084 12.2344 90.6884 12.8944C91.1684 13.5424 91.4084 14.5564 91.4084 15.9364V19.2844C91.4084 19.5244 91.4024 19.7404 91.3904 19.9324C91.3904 20.1124 91.3724 20.3044 91.3364 20.5084C91.5284 20.4964 91.7144 20.4904 91.8944 20.4904C92.0864 20.4784 92.2784 20.4664 92.4704 20.4544V21.1924H88.7984V20.6524C89.1704 20.6524 89.4284 20.5624 89.5724 20.3824C89.7164 20.1904 89.8004 19.9324 89.8244 19.6084C89.8484 19.2724 89.8604 18.8884 89.8604 18.4564V15.9364C89.8484 14.9044 89.6744 14.1244 89.3384 13.5964C89.0144 13.0684 88.4984 12.8104 87.7904 12.8224C87.3584 12.8344 86.9324 12.9484 86.5124 13.1644C86.1044 13.3804 85.7624 13.6564 85.4864 13.9924C85.4984 14.0884 85.5044 14.1964 85.5044 14.3164C85.5044 14.4364 85.5044 14.5624 85.5044 14.6944L85.4864 19.2844C85.4864 19.5244 85.4804 19.7404 85.4684 19.9324C85.4684 20.1124 85.4504 20.3044 85.4144 20.5084C85.6064 20.4964 85.7924 20.4904 85.9724 20.4904C86.1644 20.4784 86.3564 20.4664 86.5484 20.4544V21.1924H82.8764ZM99.048 26.0704C97.968 26.0704 97.098 25.9504 96.438 25.7104C95.778 25.4704 95.298 25.1644 94.998 24.7924C94.698 24.4204 94.548 24.0364 94.548 23.6404C94.548 23.2684 94.632 22.9384 94.8 22.6504C94.98 22.3744 95.196 22.1344 95.448 21.9304C95.712 21.7264 95.964 21.5764 96.204 21.4804C95.82 21.3484 95.514 21.1744 95.286 20.9584C95.07 20.7304 94.962 20.4304 94.962 20.0584C94.962 19.6384 95.13 19.2484 95.466 18.8884C95.802 18.5164 96.234 18.2884 96.762 18.2044C96.21 17.9404 95.766 17.5744 95.43 17.1064C95.106 16.6384 94.944 16.0924 94.944 15.4684C94.944 14.7484 95.13 14.1244 95.502 13.5964C95.874 13.0564 96.348 12.6424 96.924 12.3544C97.512 12.0544 98.118 11.9044 98.742 11.9044C99.138 11.9044 99.534 11.9644 99.93 12.0844C100.326 12.1924 100.692 12.3544 101.028 12.5704C101.148 12.2344 101.316 11.9344 101.532 11.6704C101.76 11.4064 102.018 11.2024 102.306 11.0584C102.594 10.9024 102.894 10.8244 103.206 10.8244C103.518 10.8244 103.752 10.9084 103.908 11.0764C104.076 11.2324 104.16 11.4484 104.16 11.7244C104.16 11.8084 104.136 11.9104 104.088 12.0304C104.04 12.1504 103.956 12.2524 103.836 12.3364C103.728 12.4204 103.578 12.4624 103.386 12.4624C103.182 12.4624 103.014 12.4024 102.882 12.2824C102.75 12.1624 102.666 12.0124 102.63 11.8324C102.33 11.8804 102.096 12.0244 101.928 12.2644C101.76 12.4924 101.646 12.7444 101.586 13.0204C101.874 13.2844 102.102 13.6024 102.27 13.9744C102.45 14.3464 102.54 14.7424 102.54 15.1624C102.54 15.8344 102.36 16.4344 102 16.9624C101.652 17.4904 101.19 17.9044 100.614 18.2044C100.038 18.4924 99.414 18.6364 98.742 18.6364C98.514 18.6364 98.316 18.6244 98.148 18.6004C97.98 18.5644 97.776 18.5464 97.536 18.5464C97.092 18.5464 96.732 18.6544 96.456 18.8704C96.18 19.0864 96.084 19.3444 96.168 19.6444C96.264 19.9324 96.558 20.1184 97.05 20.2024C97.542 20.2744 98.202 20.3284 99.03 20.3644C99.954 20.4004 100.746 20.5084 101.406 20.6884C102.066 20.8684 102.57 21.1444 102.918 21.5164C103.278 21.9004 103.458 22.4164 103.458 23.0644C103.458 23.5444 103.326 23.9704 103.062 24.3424C102.81 24.7264 102.468 25.0444 102.036 25.2964C101.616 25.5484 101.142 25.7404 100.614 25.8724C100.098 26.0044 99.576 26.0704 99.048 26.0704ZM99.03 25.3684C100.062 25.3684 100.866 25.1764 101.442 24.7924C102.018 24.4084 102.306 23.9584 102.306 23.4424C102.306 22.9984 102.156 22.6564 101.856 22.4164C101.556 22.1884 101.148 22.0264 100.632 21.9304C100.116 21.8464 99.522 21.7984 98.85 21.7864C98.526 21.7744 98.208 21.7564 97.896 21.7324C97.584 21.7204 97.284 21.6904 96.996 21.6424C96.672 21.8584 96.42 22.1224 96.24 22.4344C96.06 22.7464 95.97 23.0764 95.97 23.4244C95.97 24.0124 96.246 24.4804 96.798 24.8284C97.362 25.1884 98.106 25.3684 99.03 25.3684ZM98.796 17.9884C99.24 17.9884 99.606 17.8804 99.894 17.6644C100.194 17.4484 100.416 17.1544 100.56 16.7824C100.716 16.4104 100.794 15.9904 100.794 15.5224C100.794 14.9944 100.716 14.5024 100.56 14.0464C100.404 13.5904 100.17 13.2244 99.858 12.9484C99.558 12.6724 99.174 12.5344 98.706 12.5344C98.058 12.5344 97.554 12.7804 97.194 13.2724C96.846 13.7524 96.672 14.3524 96.672 15.0724C96.672 15.6484 96.756 16.1584 96.924 16.6024C97.092 17.0344 97.332 17.3764 97.644 17.6284C97.968 17.8684 98.352 17.9884 98.796 17.9884ZM111.026 25.7824V25.2424C111.398 25.2424 111.656 25.1464 111.8 24.9544C111.944 24.7744 112.028 24.5164 112.052 24.1804C112.076 23.8564 112.088 23.4784 112.088 23.0464L112.124 14.3524C112.124 14.1604 112.124 13.9684 112.124 13.7764C112.136 13.5844 112.16 13.3864 112.196 13.1824C111.98 13.1944 111.764 13.2064 111.548 13.2184C111.344 13.2304 111.134 13.2424 110.918 13.2544V12.4984C111.446 12.4984 111.842 12.4744 112.106 12.4264C112.382 12.3784 112.58 12.3184 112.7 12.2464C112.832 12.1744 112.94 12.0964 113.024 12.0124H113.564C113.576 12.1324 113.588 12.2764 113.6 12.4444C113.612 12.6004 113.624 12.7804 113.636 12.9844C113.996 12.6604 114.422 12.4024 114.914 12.2104C115.418 12.0064 115.922 11.9044 116.426 11.9044C117.122 11.9044 117.77 12.0844 118.37 12.4444C118.97 12.8044 119.456 13.3204 119.828 13.9924C120.2 14.6524 120.386 15.4444 120.386 16.3684C120.386 17.3884 120.17 18.2824 119.738 19.0504C119.318 19.8184 118.76 20.4184 118.064 20.8504C117.368 21.2704 116.612 21.4804 115.796 21.4804C115.376 21.4804 114.986 21.4264 114.626 21.3184C114.278 21.2224 113.948 21.0784 113.636 20.8864V23.8744C113.636 24.1144 113.63 24.3244 113.618 24.5044C113.618 24.6964 113.6 24.8944 113.564 25.0984C113.756 25.0864 113.942 25.0744 114.122 25.0624C114.314 25.0624 114.506 25.0564 114.698 25.0444V25.7824H111.026ZM115.76 20.7604C116.336 20.7604 116.828 20.5864 117.236 20.2384C117.656 19.8784 117.974 19.3924 118.19 18.7804C118.418 18.1564 118.532 17.4484 118.532 16.6564C118.532 16.0084 118.436 15.3904 118.244 14.8024C118.064 14.2024 117.77 13.7164 117.362 13.3444C116.966 12.9724 116.438 12.7864 115.778 12.7864C115.37 12.7864 114.974 12.8884 114.59 13.0924C114.218 13.2844 113.906 13.5184 113.654 13.7944C113.654 13.8424 113.654 13.9144 113.654 14.0104C113.666 14.0944 113.672 14.2504 113.672 14.4784C113.672 14.6944 113.672 15.0244 113.672 15.4684C113.672 15.9004 113.666 16.4884 113.654 17.2324C113.654 17.9764 113.654 18.9184 113.654 20.0584C113.954 20.2864 114.278 20.4604 114.626 20.5804C114.986 20.7004 115.364 20.7604 115.76 20.7604ZM122.828 20.6524C123.2 20.6524 123.458 20.5624 123.602 20.3824C123.746 20.1904 123.83 19.9324 123.854 19.6084C123.878 19.2724 123.89 18.8884 123.89 18.4564V14.3524C123.89 14.1604 123.89 13.9684 123.89 13.7764C123.902 13.5844 123.926 13.3864 123.962 13.1824C123.746 13.1944 123.53 13.2064 123.314 13.2184C123.11 13.2184 122.9 13.2244 122.684 13.2364V12.4984H123.242C123.758 12.4984 124.112 12.4504 124.304 12.3544C124.508 12.2464 124.676 12.1324 124.808 12.0124H125.33C125.354 12.2044 125.372 12.4444 125.384 12.7324C125.396 13.0084 125.408 13.3624 125.42 13.7944C125.6 13.4944 125.846 13.2004 126.158 12.9124C126.47 12.6244 126.818 12.3844 127.202 12.1924C127.598 12.0004 128.012 11.9044 128.444 11.9044C128.78 11.9044 129.074 11.9944 129.326 12.1744C129.578 12.3544 129.704 12.6424 129.704 13.0384C129.704 13.1344 129.674 13.2544 129.614 13.3984C129.554 13.5304 129.458 13.6504 129.326 13.7584C129.194 13.8544 129.02 13.9024 128.804 13.9024C128.54 13.8904 128.33 13.7884 128.174 13.5964C128.018 13.3924 127.958 13.1584 127.994 12.8944C127.694 12.8824 127.382 12.9604 127.058 13.1284C126.746 13.2964 126.452 13.5304 126.176 13.8304C125.9 14.1184 125.654 14.4604 125.438 14.8564L125.456 19.2844C125.456 19.5244 125.45 19.7404 125.438 19.9324C125.438 20.1124 125.42 20.3044 125.384 20.5084C125.576 20.4964 125.762 20.4904 125.942 20.4904C126.134 20.4784 126.326 20.4664 126.518 20.4544V21.1924H122.828V20.6524ZM135.856 21.4804C135.016 21.4804 134.254 21.2884 133.57 20.9044C132.886 20.5084 132.34 19.9684 131.932 19.2844C131.536 18.5884 131.338 17.7964 131.338 16.9084C131.338 15.9604 131.536 15.1084 131.932 14.3524C132.328 13.5964 132.868 13.0024 133.552 12.5704C134.236 12.1264 135.004 11.9044 135.856 11.9044C136.696 11.9044 137.458 12.1084 138.142 12.5164C138.826 12.9124 139.372 13.4524 139.78 14.1364C140.188 14.8204 140.392 15.6004 140.392 16.4764C140.392 17.4004 140.188 18.2464 139.78 19.0144C139.384 19.7704 138.844 20.3704 138.16 20.8144C137.476 21.2584 136.708 21.4804 135.856 21.4804ZM136 20.7604C136.636 20.7604 137.14 20.5804 137.512 20.2204C137.884 19.8604 138.148 19.3924 138.304 18.8164C138.472 18.2404 138.556 17.6344 138.556 16.9984C138.556 16.4584 138.502 15.9304 138.394 15.4144C138.298 14.8864 138.142 14.4124 137.926 13.9924C137.71 13.5604 137.428 13.2184 137.08 12.9664C136.744 12.7144 136.336 12.5884 135.856 12.5884C135.232 12.5884 134.722 12.7684 134.326 13.1284C133.93 13.4884 133.636 13.9564 133.444 14.5324C133.264 15.1084 133.174 15.7264 133.174 16.3864C133.174 17.1304 133.276 17.8384 133.48 18.5104C133.684 19.1704 133.996 19.7104 134.416 20.1304C134.836 20.5504 135.364 20.7604 136 20.7604ZM142.659 25.7824V25.2424C143.031 25.2424 143.289 25.1464 143.433 24.9544C143.577 24.7744 143.661 24.5164 143.685 24.1804C143.709 23.8564 143.721 23.4784 143.721 23.0464L143.757 14.3524C143.757 14.1604 143.757 13.9684 143.757 13.7764C143.769 13.5844 143.793 13.3864 143.829 13.1824C143.613 13.1944 143.397 13.2064 143.181 13.2184C142.977 13.2304 142.767 13.2424 142.551 13.2544V12.4984C143.079 12.4984 143.475 12.4744 143.739 12.4264C144.015 12.3784 144.213 12.3184 144.333 12.2464C144.465 12.1744 144.573 12.0964 144.657 12.0124H145.197C145.209 12.1324 145.221 12.2764 145.233 12.4444C145.245 12.6004 145.257 12.7804 145.269 12.9844C145.629 12.6604 146.055 12.4024 146.547 12.2104C147.051 12.0064 147.555 11.9044 148.059 11.9044C148.755 11.9044 149.403 12.0844 150.003 12.4444C150.603 12.8044 151.089 13.3204 151.461 13.9924C151.833 14.6524 152.019 15.4444 152.019 16.3684C152.019 17.3884 151.803 18.2824 151.371 19.0504C150.951 19.8184 150.393 20.4184 149.697 20.8504C149.001 21.2704 148.245 21.4804 147.429 21.4804C147.009 21.4804 146.619 21.4264 146.259 21.3184C145.911 21.2224 145.581 21.0784 145.269 20.8864V23.8744C145.269 24.1144 145.263 24.3244 145.251 24.5044C145.251 24.6964 145.233 24.8944 145.197 25.0984C145.389 25.0864 145.575 25.0744 145.755 25.0624C145.947 25.0624 146.139 25.0564 146.331 25.0444V25.7824H142.659ZM147.393 20.7604C147.969 20.7604 148.461 20.5864 148.869 20.2384C149.289 19.8784 149.607 19.3924 149.823 18.7804C150.051 18.1564 150.165 17.4484 150.165 16.6564C150.165 16.0084 150.069 15.3904 149.877 14.8024C149.697 14.2024 149.403 13.7164 148.995 13.3444C148.599 12.9724 148.071 12.7864 147.411 12.7864C147.003 12.7864 146.607 12.8884 146.223 13.0924C145.851 13.2844 145.539 13.5184 145.287 13.7944C145.287 13.8424 145.287 13.9144 145.287 14.0104C145.299 14.0944 145.305 14.2504 145.305 14.4784C145.305 14.6944 145.305 15.0244 145.305 15.4684C145.305 15.9004 145.299 16.4884 145.287 17.2324C145.287 17.9764 145.287 18.9184 145.287 20.0584C145.587 20.2864 145.911 20.4604 146.259 20.5804C146.619 20.7004 146.997 20.7604 147.393 20.7604ZM158.818 21.4804C157.99 21.4804 157.24 21.2884 156.568 20.9044C155.908 20.5084 155.386 19.9564 155.002 19.2484C154.618 18.5284 154.426 17.6824 154.426 16.7104C154.426 15.8704 154.612 15.0844 154.984 14.3524C155.368 13.6204 155.902 13.0324 156.586 12.5884C157.27 12.1324 158.062 11.9044 158.962 11.9044C159.466 11.9044 159.934 11.9884 160.366 12.1564C160.81 12.3124 161.2 12.5584 161.536 12.8944C161.872 13.2184 162.136 13.6324 162.328 14.1364C162.52 14.6284 162.616 15.2104 162.616 15.8824L156.28 15.9904C156.28 16.9024 156.376 17.7064 156.568 18.4024C156.772 19.0864 157.096 19.6204 157.54 20.0044C157.984 20.3764 158.554 20.5624 159.25 20.5624C159.622 20.5624 160 20.4964 160.384 20.3644C160.78 20.2324 161.146 20.0524 161.482 19.8244C161.818 19.5964 162.088 19.3444 162.292 19.0684L162.724 19.4284C162.4 19.9324 162.01 20.3344 161.554 20.6344C161.098 20.9344 160.63 21.1504 160.15 21.2824C159.67 21.4144 159.226 21.4804 158.818 21.4804ZM156.334 15.2344H160.924C160.924 14.8024 160.858 14.3884 160.726 13.9924C160.606 13.5844 160.402 13.2544 160.114 13.0024C159.826 12.7384 159.448 12.6064 158.98 12.6064C158.284 12.6064 157.702 12.8164 157.234 13.2364C156.778 13.6444 156.478 14.3104 156.334 15.2344ZM165.117 20.6524C165.489 20.6524 165.747 20.5624 165.891 20.3824C166.035 20.1904 166.119 19.9324 166.143 19.6084C166.167 19.2724 166.179 18.8884 166.179 18.4564V14.3524C166.179 14.1604 166.179 13.9684 166.179 13.7764C166.191 13.5844 166.215 13.3864 166.251 13.1824C166.035 13.1944 165.819 13.2064 165.603 13.2184C165.399 13.2184 165.189 13.2244 164.973 13.2364V12.4984H165.531C166.047 12.4984 166.401 12.4504 166.593 12.3544C166.797 12.2464 166.965 12.1324 167.097 12.0124H167.619C167.643 12.2044 167.661 12.4444 167.673 12.7324C167.685 13.0084 167.697 13.3624 167.709 13.7944C167.889 13.4944 168.135 13.2004 168.447 12.9124C168.759 12.6244 169.107 12.3844 169.491 12.1924C169.887 12.0004 170.301 11.9044 170.733 11.9044C171.069 11.9044 171.363 11.9944 171.615 12.1744C171.867 12.3544 171.993 12.6424 171.993 13.0384C171.993 13.1344 171.963 13.2544 171.903 13.3984C171.843 13.5304 171.747 13.6504 171.615 13.7584C171.483 13.8544 171.309 13.9024 171.093 13.9024C170.829 13.8904 170.619 13.7884 170.463 13.5964C170.307 13.3924 170.247 13.1584 170.283 12.8944C169.983 12.8824 169.671 12.9604 169.347 13.1284C169.035 13.2964 168.741 13.5304 168.465 13.8304C168.189 14.1184 167.943 14.4604 167.727 14.8564L167.745 19.2844C167.745 19.5244 167.739 19.7404 167.727 19.9324C167.727 20.1124 167.709 20.3044 167.673 20.5084C167.865 20.4964 168.051 20.4904 168.231 20.4904C168.423 20.4784 168.615 20.4664 168.807 20.4544V21.1924H165.117V20.6524ZM177.312 21.4804C177.036 21.4804 176.754 21.4384 176.466 21.3544C176.178 21.2824 175.908 21.1324 175.656 20.9044C175.416 20.6764 175.224 20.3464 175.08 19.9144C174.936 19.4704 174.864 18.8884 174.864 18.1684L174.9 12.9484L173.514 12.9664V12.1924C173.826 12.1804 174.144 12.0664 174.468 11.8504C174.792 11.6224 175.08 11.3164 175.332 10.9324C175.596 10.5484 175.776 10.1284 175.872 9.67238H176.484V12.1924H179.508V12.8944L176.484 12.9304L176.448 17.9344C176.448 18.4744 176.49 18.9364 176.574 19.3204C176.67 19.6924 176.82 19.9744 177.024 20.1664C177.228 20.3584 177.492 20.4544 177.816 20.4544C178.152 20.4544 178.464 20.3584 178.752 20.1664C179.052 19.9744 179.316 19.7104 179.544 19.3744L180.03 19.7704C179.766 20.1664 179.502 20.4784 179.238 20.7064C178.986 20.9344 178.74 21.1024 178.5 21.2104C178.26 21.3304 178.038 21.4024 177.834 21.4264C177.63 21.4624 177.456 21.4804 177.312 21.4804ZM183.21 26.0704C182.838 26.0704 182.52 25.9804 182.256 25.8004C181.992 25.6204 181.86 25.3444 181.86 24.9724C181.86 24.7564 181.932 24.5584 182.076 24.3784C182.22 24.1984 182.406 24.1084 182.634 24.1084C182.922 24.0964 183.114 24.1864 183.21 24.3784C183.318 24.5704 183.372 24.7384 183.372 24.8824C183.372 24.9184 183.372 24.9544 183.372 24.9904C183.372 25.0384 183.366 25.0864 183.354 25.1344C183.39 25.1584 183.456 25.1704 183.552 25.1704C183.696 25.1704 183.852 25.1104 184.02 24.9904C184.188 24.8704 184.338 24.6964 184.47 24.4684C184.626 24.2044 184.806 23.8084 185.01 23.2804C185.226 22.7524 185.466 22.1224 185.73 21.3904L182.922 15.3784C182.61 14.7064 182.382 14.1724 182.238 13.7764C182.106 13.3804 182.016 13.0864 181.968 12.8944L181.104 12.9304V12.1924H184.83V12.7324H184.758C184.254 12.7684 183.978 12.9604 183.93 13.3084C183.882 13.6444 184.02 14.1604 184.344 14.8564L186.45 19.3744C186.726 18.6064 186.99 17.8504 187.242 17.1064C187.494 16.3504 187.746 15.6004 187.998 14.8564C188.094 14.5924 188.19 14.3224 188.286 14.0464C188.394 13.7584 188.496 13.5064 188.592 13.2904C188.7 13.0624 188.796 12.9184 188.88 12.8584L187.638 12.9304V12.1924H190.464V12.7324C190.02 12.9004 189.684 13.1824 189.456 13.5784C189.24 13.9624 189.018 14.4604 188.79 15.0724L186.54 21.3544C186.18 22.3624 185.85 23.2144 185.55 23.9104C185.25 24.6184 184.92 25.1524 184.56 25.5124C184.2 25.8844 183.75 26.0704 183.21 26.0704Z" fill="#FAFAFA"/>
</g>
<defs>
<clipPath id="clip0_102_294">
<rect width="191.265" height="30" fill="white" transform="translate(0.203125)"/>
</clipPath>
</defs>
</svg>
