<svg width="161" height="30" viewBox="0 0 161 30" fill="none" xmlns="http://www.w3.org/2000/svg">
<g clip-path="url(#clip0_102_301)">
<path d="M21.7831 19.4012C22.3679 19.0019 23.0537 18.7763 23.7613 18.7505C24.469 18.7248 25.1694 18.8998 25.7817 19.2555C26.3939 19.6112 26.893 20.133 27.2211 20.7605C27.5492 21.3879 27.6929 22.0955 27.6356 22.8012C26.1359 23.3254 24.5429 23.5294 22.9594 23.4C22.9545 21.9833 22.5466 20.596 21.7831 19.4025C21.1055 18.3397 20.1708 17.465 19.0654 16.8594C17.9601 16.2537 16.7198 15.9366 15.4594 15.9375C14.1992 15.9369 12.9592 16.254 11.8541 16.8597C10.7489 17.4653 9.8144 18.3399 9.13689 19.4025M22.9581 23.3987L22.9594 23.4375C22.9594 23.7187 22.9444 23.9963 22.9131 24.27C20.6448 25.5714 18.0745 26.2542 15.4594 26.25C12.7469 26.25 10.2006 25.53 8.00564 24.27C7.97351 23.9807 7.95806 23.6898 7.95939 23.3987M7.95939 23.3987C6.37643 23.5328 4.78428 23.3296 3.28564 22.8025C3.22858 22.0969 3.37239 21.3896 3.70043 20.7624C4.02847 20.1351 4.52735 19.6135 5.1394 19.2579C5.75144 18.9022 6.45164 18.7271 7.15904 18.7527C7.86644 18.7783 8.55216 19.0036 9.13689 19.4025M7.95939 23.3987C7.96388 21.9822 8.37392 20.5961 9.13689 19.4025M19.2094 8.4375C19.2094 9.43206 18.8143 10.3859 18.111 11.0892C17.4078 11.7924 16.454 12.1875 15.4594 12.1875C14.4648 12.1875 13.511 11.7924 12.8077 11.0892C12.1045 10.3859 11.7094 9.43206 11.7094 8.4375C11.7094 7.44294 12.1045 6.48911 12.8077 5.78585C13.511 5.08259 14.4648 4.6875 15.4594 4.6875C16.454 4.6875 17.4078 5.08259 18.111 5.78585C18.8143 6.48911 19.2094 7.44294 19.2094 8.4375ZM26.7094 12.1875C26.7094 12.5568 26.6366 12.9226 26.4953 13.2638C26.354 13.605 26.1468 13.9151 25.8856 14.1762C25.6245 14.4374 25.3144 14.6446 24.9732 14.7859C24.632 14.9273 24.2662 15 23.8969 15C23.5275 15 23.1618 14.9273 22.8206 14.7859C22.4794 14.6446 22.1693 14.4374 21.9082 14.1762C21.647 13.9151 21.4398 13.605 21.2985 13.2638C21.1571 12.9226 21.0844 12.5568 21.0844 12.1875C21.0844 11.4416 21.3807 10.7262 21.9082 10.1988C22.4356 9.67132 23.151 9.375 23.8969 9.375C24.6428 9.375 25.3582 9.67132 25.8856 10.1988C26.4131 10.7262 26.7094 11.4416 26.7094 12.1875ZM9.83439 12.1875C9.83439 12.5568 9.76165 12.9226 9.6203 13.2638C9.47896 13.605 9.27179 13.9151 9.01063 14.1762C8.74947 14.4374 8.43942 14.6446 8.09819 14.7859C7.75696 14.9273 7.39124 15 7.02189 15C6.65255 15 6.28682 14.9273 5.9456 14.7859C5.60437 14.6446 5.29432 14.4374 5.03315 14.1762C4.77199 13.9151 4.56482 13.605 4.42348 13.2638C4.28214 12.9226 4.20939 12.5568 4.20939 12.1875C4.20939 11.4416 4.50571 10.7262 5.03315 10.1988C5.5606 9.67132 6.27597 9.375 7.02189 9.375C7.76781 9.375 8.48318 9.67132 9.01063 10.1988C9.53808 10.7262 9.83439 11.4416 9.83439 12.1875Z" stroke="#FAFAFA" stroke-width="1.875" stroke-linecap="round" stroke-linejoin="round"/>
<path d="M53.403 12.6064C53.283 11.4784 52.887 10.6024 52.215 9.97838C51.555 9.35438 50.703 9.04238 49.659 9.04238C49.023 9.04238 48.423 9.18038 47.859 9.45638C47.307 9.72038 46.821 10.1044 46.401 10.6084C45.981 11.1124 45.651 11.7184 45.411 12.4264C45.171 13.1344 45.051 13.9324 45.051 14.8204C45.051 15.9484 45.267 16.9444 45.699 17.8084C46.131 18.6724 46.713 19.3444 47.445 19.8244C48.177 20.3044 48.987 20.5444 49.875 20.5444C50.655 20.5444 51.423 20.3704 52.179 20.0224C52.935 19.6624 53.553 19.1464 54.033 18.4744L54.501 18.8524C53.985 19.5604 53.427 20.1064 52.827 20.4904C52.227 20.8744 51.627 21.1324 51.027 21.2644C50.439 21.4084 49.899 21.4804 49.407 21.4804C48.507 21.4804 47.679 21.3184 46.923 20.9944C46.179 20.6704 45.531 20.2204 44.979 19.6444C44.439 19.0564 44.019 18.3784 43.719 17.6104C43.431 16.8304 43.287 15.9904 43.287 15.0904C43.287 14.2384 43.413 13.4104 43.665 12.6064C43.929 11.8024 44.319 11.0764 44.835 10.4284C45.351 9.78038 45.999 9.26438 46.779 8.88038C47.571 8.49638 48.489 8.30438 49.533 8.30438C50.205 8.30438 50.841 8.39438 51.441 8.57438C52.041 8.75438 52.617 9.03038 53.169 9.40238L53.079 8.43038H54.051V12.6064H53.403ZM61.2009 21.4804C60.3609 21.4804 59.5989 21.2884 58.9149 20.9044C58.2309 20.5084 57.6849 19.9684 57.2769 19.2844C56.8809 18.5884 56.6829 17.7964 56.6829 16.9084C56.6829 15.9604 56.8809 15.1084 57.2769 14.3524C57.6729 13.5964 58.2129 13.0024 58.8969 12.5704C59.5809 12.1264 60.3489 11.9044 61.2009 11.9044C62.0409 11.9044 62.8029 12.1084 63.4869 12.5164C64.1709 12.9124 64.7169 13.4524 65.1249 14.1364C65.5329 14.8204 65.7369 15.6004 65.7369 16.4764C65.7369 17.4004 65.5329 18.2464 65.1249 19.0144C64.7289 19.7704 64.1889 20.3704 63.5049 20.8144C62.8209 21.2584 62.0529 21.4804 61.2009 21.4804ZM61.3449 20.7604C61.9809 20.7604 62.4849 20.5804 62.8569 20.2204C63.2289 19.8604 63.4929 19.3924 63.6489 18.8164C63.8169 18.2404 63.9009 17.6344 63.9009 16.9984C63.9009 16.4584 63.8469 15.9304 63.7389 15.4144C63.6429 14.8864 63.4869 14.4124 63.2709 13.9924C63.0549 13.5604 62.7729 13.2184 62.4249 12.9664C62.0889 12.7144 61.6809 12.5884 61.2009 12.5884C60.5769 12.5884 60.0669 12.7684 59.6709 13.1284C59.2749 13.4884 58.9809 13.9564 58.7889 14.5324C58.6089 15.1084 58.5189 15.7264 58.5189 16.3864C58.5189 17.1304 58.6209 17.8384 58.8249 18.5104C59.0289 19.1704 59.3409 19.7104 59.7609 20.1304C60.1809 20.5504 60.7089 20.7604 61.3449 20.7604ZM68.1662 21.1924V20.6524C68.5382 20.6524 68.7962 20.5624 68.9402 20.3824C69.0842 20.1904 69.1682 19.9324 69.1922 19.6084C69.2162 19.2724 69.2282 18.8884 69.2282 18.4564L69.2462 14.3524C69.2462 14.1604 69.2462 13.9684 69.2462 13.7764C69.2582 13.5844 69.2822 13.3864 69.3182 13.1824C69.1022 13.1944 68.8862 13.2064 68.6702 13.2184C68.4662 13.2304 68.2562 13.2424 68.0402 13.2544V12.4984C68.5682 12.4984 68.9642 12.4744 69.2282 12.4264C69.5042 12.3784 69.7082 12.3184 69.8402 12.2464C69.9722 12.1744 70.0802 12.0964 70.1642 12.0124H70.6862C70.6982 12.0964 70.7042 12.1924 70.7042 12.3004C70.7162 12.4084 70.7282 12.5284 70.7402 12.6604C70.7522 12.7924 70.7582 12.9424 70.7582 13.1104C71.0222 12.8824 71.3102 12.6784 71.6222 12.4984C71.9462 12.3184 72.2822 12.1744 72.6302 12.0664C72.9902 11.9584 73.3442 11.9044 73.6922 11.9044C74.7362 11.9044 75.4982 12.2344 75.9782 12.8944C76.4582 13.5424 76.6982 14.5564 76.6982 15.9364V19.2844C76.6982 19.5244 76.6922 19.7404 76.6802 19.9324C76.6802 20.1124 76.6622 20.3044 76.6262 20.5084C76.8182 20.4964 77.0042 20.4904 77.1842 20.4904C77.3762 20.4784 77.5682 20.4664 77.7602 20.4544V21.1924H74.0882V20.6524C74.4602 20.6524 74.7182 20.5624 74.8622 20.3824C75.0062 20.1904 75.0902 19.9324 75.1142 19.6084C75.1382 19.2724 75.1502 18.8884 75.1502 18.4564V15.9364C75.1382 14.9044 74.9642 14.1244 74.6282 13.5964C74.3042 13.0684 73.7882 12.8104 73.0802 12.8224C72.6482 12.8344 72.2222 12.9484 71.8022 13.1644C71.3942 13.3804 71.0522 13.6564 70.7762 13.9924C70.7882 14.0884 70.7942 14.1964 70.7942 14.3164C70.7942 14.4364 70.7942 14.5624 70.7942 14.6944L70.7762 19.2844C70.7762 19.5244 70.7702 19.7404 70.7582 19.9324C70.7582 20.1124 70.7402 20.3044 70.7042 20.5084C70.8962 20.4964 71.0822 20.4904 71.2622 20.4904C71.4542 20.4784 71.6462 20.4664 71.8382 20.4544V21.1924H68.1662ZM83.6898 21.4804C83.0898 21.4804 82.5558 21.3964 82.0878 21.2284C81.6198 21.0724 81.2358 20.8924 80.9358 20.6884L81.0078 21.3184H80.2518L80.1438 18.2224H80.7018C80.7258 18.7144 80.8638 19.1584 81.1158 19.5544C81.3678 19.9384 81.6918 20.2384 82.0878 20.4544C82.4838 20.6704 82.9098 20.7784 83.3658 20.7784C83.6778 20.7784 83.9838 20.7304 84.2838 20.6344C84.5838 20.5264 84.8358 20.3704 85.0398 20.1664C85.2438 19.9504 85.3458 19.6804 85.3458 19.3564C85.3458 19.0204 85.2438 18.7444 85.0398 18.5284C84.8478 18.3004 84.5898 18.1024 84.2658 17.9344C83.9418 17.7664 83.5938 17.6104 83.2218 17.4664C82.8618 17.3224 82.5018 17.1724 82.1418 17.0164C81.7818 16.8604 81.4458 16.6744 81.1338 16.4584C80.8338 16.2424 80.5938 15.9784 80.4138 15.6664C80.2338 15.3544 80.1438 14.9704 80.1438 14.5144C80.1438 14.2624 80.1918 13.9864 80.2878 13.6864C80.3838 13.3864 80.5458 13.1044 80.7738 12.8404C81.0018 12.5644 81.3138 12.3424 81.7098 12.1744C82.1058 11.9944 82.6098 11.9044 83.2218 11.9044C83.5458 11.9044 83.9058 11.9584 84.3018 12.0664C84.6978 12.1744 85.0818 12.3784 85.4538 12.6784L85.4178 11.9944H86.1738V15.1444H85.5978C85.5738 14.7244 85.4778 14.3224 85.3098 13.9384C85.1418 13.5424 84.8958 13.2184 84.5718 12.9664C84.2478 12.7024 83.8278 12.5704 83.3118 12.5704C82.7598 12.5704 82.3278 12.7084 82.0158 12.9844C81.7038 13.2604 81.5478 13.5784 81.5478 13.9384C81.5478 14.3104 81.6618 14.6224 81.8898 14.8744C82.1298 15.1144 82.4358 15.3244 82.8078 15.5044C83.1798 15.6844 83.5758 15.8584 83.9958 16.0264C84.4518 16.2184 84.8958 16.4284 85.3278 16.6564C85.7598 16.8844 86.1138 17.1724 86.3898 17.5204C86.6658 17.8564 86.8038 18.2944 86.8038 18.8344C86.8038 19.4344 86.6478 19.9324 86.3358 20.3284C86.0358 20.7244 85.6458 21.0124 85.1658 21.1924C84.6978 21.3844 84.2058 21.4804 83.6898 21.4804ZM93.0298 21.4804C92.3818 21.4804 91.8358 21.3604 91.3918 21.1204C90.9598 20.8804 90.6298 20.4724 90.4018 19.8964C90.1858 19.3204 90.0778 18.5404 90.0778 17.5564V14.3524C90.0778 14.1604 90.0778 13.9684 90.0778 13.7764C90.0898 13.5844 90.1138 13.3864 90.1498 13.1824C89.9458 13.1944 89.7358 13.2064 89.5198 13.2184C89.3158 13.2184 89.1118 13.2244 88.9078 13.2364V12.4984H89.4658C89.9818 12.4984 90.3538 12.4504 90.5818 12.3544C90.8218 12.2464 91.0078 12.1324 91.1398 12.0124H91.6618V17.5024C91.6618 18.5344 91.8058 19.3084 92.0938 19.8244C92.3938 20.3284 92.8978 20.5744 93.6058 20.5624C94.0618 20.5504 94.4938 20.4124 94.9018 20.1484C95.3218 19.8724 95.6578 19.5484 95.9098 19.1764V14.5504C95.9098 14.2624 95.9158 14.0164 95.9278 13.8124C95.9398 13.5964 95.9638 13.3864 95.9998 13.1824C95.7838 13.1944 95.5678 13.2064 95.3518 13.2184C95.1358 13.2184 94.9198 13.2244 94.7038 13.2364V12.4984H95.2618C95.7778 12.4984 96.1498 12.4504 96.3778 12.3544C96.6178 12.2464 96.8038 12.1324 96.9358 12.0124H97.4578L97.4398 18.8164C97.4398 19.0084 97.4338 19.2784 97.4218 19.6264C97.4098 19.9744 97.3918 20.2684 97.3678 20.5084C97.5838 20.4964 97.7998 20.4844 98.0158 20.4724C98.2318 20.4604 98.4478 20.4484 98.6638 20.4364V21.1924H96.0898C96.0538 20.9884 96.0238 20.7964 95.9998 20.6164C95.9878 20.4364 95.9758 20.2684 95.9638 20.1124C95.5918 20.4844 95.1418 20.8084 94.6138 21.0844C94.0858 21.3484 93.5578 21.4804 93.0298 21.4804ZM100.692 20.6524C101.064 20.6524 101.322 20.5624 101.466 20.3824C101.61 20.1904 101.694 19.9324 101.718 19.6084C101.742 19.2724 101.754 18.8884 101.754 18.4564V9.94238C101.754 9.75038 101.754 9.57038 101.754 9.40238C101.766 9.22238 101.784 9.01238 101.808 8.77238C101.592 8.78438 101.376 8.79638 101.16 8.80838C100.956 8.82038 100.746 8.83238 100.53 8.84438V8.08838C101.058 8.08838 101.466 8.06438 101.754 8.01638C102.054 7.96838 102.276 7.90838 102.42 7.83638C102.576 7.76438 102.696 7.68638 102.78 7.60238H103.302L103.32 19.2844C103.32 19.5244 103.314 19.7404 103.302 19.9324C103.29 20.1124 103.266 20.3044 103.23 20.5084C103.422 20.4964 103.608 20.4904 103.788 20.4904C103.98 20.4784 104.172 20.4664 104.364 20.4544V21.1924H100.692V20.6524ZM110.06 21.4804C109.784 21.4804 109.502 21.4384 109.214 21.3544C108.926 21.2824 108.656 21.1324 108.404 20.9044C108.164 20.6764 107.972 20.3464 107.828 19.9144C107.684 19.4704 107.612 18.8884 107.612 18.1684L107.648 12.9484L106.262 12.9664V12.1924C106.574 12.1804 106.892 12.0664 107.216 11.8504C107.54 11.6224 107.828 11.3164 108.08 10.9324C108.344 10.5484 108.524 10.1284 108.62 9.67238H109.232V12.1924H112.256V12.8944L109.232 12.9304L109.196 17.9344C109.196 18.4744 109.238 18.9364 109.322 19.3204C109.418 19.6924 109.568 19.9744 109.772 20.1664C109.976 20.3584 110.24 20.4544 110.564 20.4544C110.9 20.4544 111.212 20.3584 111.5 20.1664C111.8 19.9744 112.064 19.7104 112.292 19.3744L112.778 19.7704C112.514 20.1664 112.25 20.4784 111.986 20.7064C111.734 20.9344 111.488 21.1024 111.248 21.2104C111.008 21.3304 110.786 21.4024 110.582 21.4264C110.378 21.4624 110.204 21.4804 110.06 21.4804ZM120.009 21.1924C119.973 20.9884 119.949 20.8084 119.937 20.6524C119.925 20.4964 119.907 20.3344 119.883 20.1664C119.475 20.5744 119.031 20.8984 118.551 21.1384C118.083 21.3664 117.585 21.4804 117.057 21.4804C116.145 21.4804 115.467 21.2764 115.023 20.8684C114.579 20.4484 114.357 19.9384 114.357 19.3384C114.357 18.7864 114.525 18.3124 114.861 17.9164C115.209 17.5084 115.653 17.1784 116.193 16.9264C116.745 16.6624 117.339 16.4704 117.975 16.3504C118.623 16.2184 119.247 16.1584 119.847 16.1704V15.0544C119.847 14.6344 119.811 14.2384 119.739 13.8664C119.667 13.4944 119.511 13.1884 119.271 12.9484C119.031 12.7084 118.647 12.5824 118.119 12.5704C117.771 12.5584 117.411 12.6244 117.039 12.7684C116.679 12.9124 116.415 13.1584 116.247 13.5064C116.343 13.6024 116.403 13.7164 116.427 13.8484C116.463 13.9684 116.481 14.0824 116.481 14.1904C116.481 14.3344 116.421 14.5024 116.301 14.6944C116.181 14.8744 115.971 14.9584 115.671 14.9464C115.419 14.9464 115.227 14.8624 115.095 14.6944C114.963 14.5144 114.897 14.3044 114.897 14.0644C114.897 13.6564 115.047 13.2904 115.347 12.9664C115.659 12.6424 116.085 12.3844 116.625 12.1924C117.165 12.0004 117.777 11.9044 118.461 11.9044C119.469 11.9044 120.213 12.1744 120.693 12.7144C121.173 13.2424 121.407 14.0824 121.395 15.2344C121.395 15.6784 121.395 16.1284 121.395 16.5844C121.395 17.0284 121.389 17.4784 121.377 17.9344C121.377 18.3784 121.377 18.8284 121.377 19.2844C121.377 19.4764 121.371 19.6684 121.359 19.8604C121.347 20.0524 121.329 20.2684 121.305 20.5084C121.521 20.4964 121.731 20.4844 121.935 20.4724C122.151 20.4604 122.367 20.4484 122.583 20.4364V21.1924H120.009ZM119.847 16.7824C119.439 16.7944 119.007 16.8484 118.551 16.9444C118.107 17.0284 117.693 17.1604 117.309 17.3404C116.937 17.5204 116.631 17.7604 116.391 18.0604C116.163 18.3484 116.055 18.7024 116.067 19.1224C116.091 19.5664 116.235 19.9024 116.499 20.1304C116.775 20.3464 117.099 20.4544 117.471 20.4544C117.963 20.4544 118.389 20.3644 118.749 20.1844C119.121 19.9924 119.487 19.7284 119.847 19.3924C119.835 19.2604 119.829 19.1164 119.829 18.9604C119.829 18.8044 119.829 18.6424 119.829 18.4744C119.829 18.4144 119.829 18.2224 119.829 17.8984C119.841 17.5744 119.847 17.2024 119.847 16.7824ZM127.98 21.4804C127.704 21.4804 127.422 21.4384 127.134 21.3544C126.846 21.2824 126.576 21.1324 126.324 20.9044C126.084 20.6764 125.892 20.3464 125.748 19.9144C125.604 19.4704 125.532 18.8884 125.532 18.1684L125.568 12.9484L124.182 12.9664V12.1924C124.494 12.1804 124.812 12.0664 125.136 11.8504C125.46 11.6224 125.748 11.3164 126 10.9324C126.264 10.5484 126.444 10.1284 126.54 9.67238H127.152V12.1924H130.176V12.8944L127.152 12.9304L127.116 17.9344C127.116 18.4744 127.158 18.9364 127.242 19.3204C127.338 19.6924 127.488 19.9744 127.692 20.1664C127.896 20.3584 128.16 20.4544 128.484 20.4544C128.82 20.4544 129.132 20.3584 129.42 20.1664C129.72 19.9744 129.984 19.7104 130.212 19.3744L130.698 19.7704C130.434 20.1664 130.17 20.4784 129.906 20.7064C129.654 20.9344 129.408 21.1024 129.168 21.2104C128.928 21.3304 128.706 21.4024 128.502 21.4264C128.298 21.4624 128.124 21.4804 127.98 21.4804ZM132.456 20.6524C132.828 20.6524 133.086 20.5624 133.23 20.3824C133.374 20.1904 133.458 19.9324 133.482 19.6084C133.506 19.2724 133.518 18.8884 133.518 18.4564V14.3524C133.518 14.1604 133.524 13.9804 133.536 13.8124C133.548 13.6324 133.566 13.4224 133.59 13.1824C133.374 13.1944 133.158 13.2064 132.942 13.2184C132.738 13.2304 132.528 13.2424 132.312 13.2544V12.4984C132.84 12.4984 133.248 12.4744 133.536 12.4264C133.824 12.3784 134.04 12.3184 134.184 12.2464C134.34 12.1744 134.46 12.0964 134.544 12.0124H135.066V19.2844C135.066 19.5244 135.06 19.7404 135.048 19.9324C135.048 20.1124 135.03 20.3044 134.994 20.5084C135.186 20.4964 135.372 20.4904 135.552 20.4904C135.744 20.4784 135.936 20.4664 136.128 20.4544V21.1924H132.456V20.6524ZM134.184 10.2304C133.932 10.2304 133.71 10.1284 133.518 9.92438C133.326 9.72038 133.23 9.46838 133.23 9.16838C133.23 8.86838 133.326 8.61638 133.518 8.41238C133.722 8.19638 133.95 8.08838 134.202 8.08838C134.478 8.08838 134.706 8.19638 134.886 8.41238C135.078 8.61638 135.174 8.86838 135.174 9.16838C135.174 9.46838 135.072 9.72038 134.868 9.92438C134.676 10.1284 134.448 10.2304 134.184 10.2304ZM142.883 21.4804C142.043 21.4804 141.281 21.2884 140.597 20.9044C139.913 20.5084 139.367 19.9684 138.959 19.2844C138.563 18.5884 138.365 17.7964 138.365 16.9084C138.365 15.9604 138.563 15.1084 138.959 14.3524C139.355 13.5964 139.895 13.0024 140.579 12.5704C141.263 12.1264 142.031 11.9044 142.883 11.9044C143.723 11.9044 144.485 12.1084 145.169 12.5164C145.853 12.9124 146.399 13.4524 146.807 14.1364C147.215 14.8204 147.419 15.6004 147.419 16.4764C147.419 17.4004 147.215 18.2464 146.807 19.0144C146.411 19.7704 145.871 20.3704 145.187 20.8144C144.503 21.2584 143.735 21.4804 142.883 21.4804ZM143.027 20.7604C143.663 20.7604 144.167 20.5804 144.539 20.2204C144.911 19.8604 145.175 19.3924 145.331 18.8164C145.499 18.2404 145.583 17.6344 145.583 16.9984C145.583 16.4584 145.529 15.9304 145.421 15.4144C145.325 14.8864 145.169 14.4124 144.953 13.9924C144.737 13.5604 144.455 13.2184 144.107 12.9664C143.771 12.7144 143.363 12.5884 142.883 12.5884C142.259 12.5884 141.749 12.7684 141.353 13.1284C140.957 13.4884 140.663 13.9564 140.471 14.5324C140.291 15.1084 140.201 15.7264 140.201 16.3864C140.201 17.1304 140.303 17.8384 140.507 18.5104C140.711 19.1704 141.023 19.7104 141.443 20.1304C141.863 20.5504 142.391 20.7604 143.027 20.7604ZM149.848 21.1924V20.6524C150.22 20.6524 150.478 20.5624 150.622 20.3824C150.766 20.1904 150.85 19.9324 150.874 19.6084C150.898 19.2724 150.91 18.8884 150.91 18.4564L150.928 14.3524C150.928 14.1604 150.928 13.9684 150.928 13.7764C150.94 13.5844 150.964 13.3864 151 13.1824C150.784 13.1944 150.568 13.2064 150.352 13.2184C150.148 13.2304 149.938 13.2424 149.722 13.2544V12.4984C150.25 12.4984 150.646 12.4744 150.91 12.4264C151.186 12.3784 151.39 12.3184 151.522 12.2464C151.654 12.1744 151.762 12.0964 151.846 12.0124H152.368C152.38 12.0964 152.386 12.1924 152.386 12.3004C152.398 12.4084 152.41 12.5284 152.422 12.6604C152.434 12.7924 152.44 12.9424 152.44 13.1104C152.704 12.8824 152.992 12.6784 153.304 12.4984C153.628 12.3184 153.964 12.1744 154.312 12.0664C154.672 11.9584 155.026 11.9044 155.374 11.9044C156.418 11.9044 157.18 12.2344 157.66 12.8944C158.14 13.5424 158.38 14.5564 158.38 15.9364V19.2844C158.38 19.5244 158.374 19.7404 158.362 19.9324C158.362 20.1124 158.344 20.3044 158.308 20.5084C158.5 20.4964 158.686 20.4904 158.866 20.4904C159.058 20.4784 159.25 20.4664 159.442 20.4544V21.1924H155.77V20.6524C156.142 20.6524 156.4 20.5624 156.544 20.3824C156.688 20.1904 156.772 19.9324 156.796 19.6084C156.82 19.2724 156.832 18.8884 156.832 18.4564V15.9364C156.82 14.9044 156.646 14.1244 156.31 13.5964C155.986 13.0684 155.47 12.8104 154.762 12.8224C154.33 12.8344 153.904 12.9484 153.484 13.1644C153.076 13.3804 152.734 13.6564 152.458 13.9924C152.47 14.0884 152.476 14.1964 152.476 14.3164C152.476 14.4364 152.476 14.5624 152.476 14.6944L152.458 19.2844C152.458 19.5244 152.452 19.7404 152.44 19.9324C152.44 20.1124 152.422 20.3044 152.386 20.5084C152.578 20.4964 152.764 20.4904 152.944 20.4904C153.136 20.4784 153.328 20.4664 153.52 20.4544V21.1924H149.848Z" fill="#FAFAFA"/>
</g>
<defs>
<clipPath id="clip0_102_301">
<rect width="160.432" height="30" fill="white" transform="translate(0.458984)"/>
</clipPath>
</defs>
</svg>
