<svg width="192" height="30" viewBox="0 0 192 30" fill="none" xmlns="http://www.w3.org/2000/svg">
<g clip-path="url(#clip0_102_287)">
<path d="M10.8125 26.25V20.1562C10.8125 19.38 11.4425 18.75 12.2188 18.75H15.0312C15.8075 18.75 16.4375 19.38 16.4375 20.1562V26.25M16.4375 26.25H22.0625V4.43125M16.4375 26.25H25.8125V13.4375M22.0625 4.43125L23.9375 3.75M22.0625 4.43125L8.9375 9.205M25.8125 13.4375L22.0625 12.1875M25.8125 13.4375L27.6875 14.0625M3.3125 26.25H5.1875M5.1875 26.25H27.6875M5.1875 26.25V3.75H8.9375V9.205M3.3125 11.25L8.9375 9.205" stroke="#FAFAFA" stroke-width="1.875" stroke-linecap="round" stroke-linejoin="round"/>
<path d="M50.564 12.4084C50.528 11.8324 50.39 11.2864 50.15 10.7704C49.91 10.2544 49.562 9.83438 49.106 9.51038C48.65 9.18638 48.068 9.02438 47.36 9.02438C46.616 9.02438 46.046 9.23438 45.65 9.65438C45.254 10.0744 45.056 10.5664 45.056 11.1304C45.056 11.6344 45.2 12.0604 45.488 12.4084C45.776 12.7444 46.148 13.0444 46.604 13.3084C47.072 13.5604 47.564 13.8064 48.08 14.0464C48.536 14.2504 48.992 14.4724 49.448 14.7124C49.904 14.9404 50.318 15.2044 50.69 15.5044C51.062 15.8044 51.356 16.1644 51.572 16.5844C51.8 16.9924 51.914 17.4844 51.914 18.0604C51.914 18.7204 51.746 19.3084 51.41 19.8244C51.086 20.3404 50.612 20.7484 49.988 21.0484C49.364 21.3364 48.602 21.4804 47.702 21.4804C47.162 21.4804 46.604 21.4024 46.028 21.2464C45.452 21.0904 44.942 20.8624 44.498 20.5624L44.588 21.3364H43.652L43.544 17.5024H44.246C44.306 18.5584 44.672 19.3624 45.344 19.9144C46.016 20.4544 46.826 20.7244 47.774 20.7244C48.242 20.7244 48.674 20.6404 49.07 20.4724C49.466 20.2924 49.778 20.0344 50.006 19.6984C50.246 19.3624 50.366 18.9544 50.366 18.4744C50.366 17.9344 50.222 17.4844 49.934 17.1244C49.646 16.7644 49.274 16.4524 48.818 16.1884C48.362 15.9244 47.876 15.6724 47.36 15.4324C46.904 15.2284 46.454 15.0124 46.01 14.7844C45.566 14.5564 45.158 14.2984 44.786 14.0104C44.426 13.7104 44.132 13.3564 43.904 12.9484C43.688 12.5404 43.58 12.0484 43.58 11.4724C43.58 11.1604 43.634 10.8244 43.742 10.4644C43.85 10.1044 44.036 9.76238 44.3 9.43838C44.576 9.10238 44.948 8.83238 45.416 8.62838C45.896 8.41238 46.502 8.30438 47.234 8.30438C47.69 8.30438 48.2 8.37038 48.764 8.50238C49.34 8.62238 49.874 8.86238 50.366 9.22238L50.294 8.44838H51.212V12.4084H50.564ZM58.7609 21.4804C57.9329 21.4804 57.1829 21.2884 56.5109 20.9044C55.8509 20.5084 55.3289 19.9564 54.9449 19.2484C54.5609 18.5284 54.3689 17.6824 54.3689 16.7104C54.3689 15.8704 54.5549 15.0844 54.9269 14.3524C55.3109 13.6204 55.8449 13.0324 56.5289 12.5884C57.2129 12.1324 58.0049 11.9044 58.9049 11.9044C59.4089 11.9044 59.8769 11.9884 60.3089 12.1564C60.7529 12.3124 61.1429 12.5584 61.4789 12.8944C61.8149 13.2184 62.0789 13.6324 62.2709 14.1364C62.4629 14.6284 62.5589 15.2104 62.5589 15.8824L56.2229 15.9904C56.2229 16.9024 56.3189 17.7064 56.5109 18.4024C56.7149 19.0864 57.0389 19.6204 57.4829 20.0044C57.9269 20.3764 58.4969 20.5624 59.1929 20.5624C59.5649 20.5624 59.9429 20.4964 60.3269 20.3644C60.7229 20.2324 61.0889 20.0524 61.4249 19.8244C61.7609 19.5964 62.0309 19.3444 62.2349 19.0684L62.6669 19.4284C62.3429 19.9324 61.9529 20.3344 61.4969 20.6344C61.0409 20.9344 60.5729 21.1504 60.0929 21.2824C59.6129 21.4144 59.1689 21.4804 58.7609 21.4804ZM56.2769 15.2344H60.8669C60.8669 14.8024 60.8009 14.3884 60.6689 13.9924C60.5489 13.5844 60.3449 13.2544 60.0569 13.0024C59.7689 12.7384 59.3909 12.6064 58.9229 12.6064C58.2269 12.6064 57.6449 12.8164 57.1769 13.2364C56.7209 13.6444 56.4209 14.3104 56.2769 15.2344ZM64.8807 20.6524C65.2527 20.6524 65.5107 20.5624 65.6547 20.3824C65.7987 20.1904 65.8827 19.9324 65.9067 19.6084C65.9307 19.2724 65.9427 18.8884 65.9427 18.4564V9.94238C65.9427 9.75038 65.9427 9.57038 65.9427 9.40238C65.9547 9.22238 65.9727 9.01238 65.9967 8.77238C65.7807 8.78438 65.5647 8.79638 65.3487 8.80838C65.1447 8.82038 64.9347 8.83238 64.7187 8.84438V8.08838C65.2467 8.08838 65.6547 8.06438 65.9427 8.01638C66.2427 7.96838 66.4647 7.90838 66.6087 7.83638C66.7647 7.76438 66.8847 7.68638 66.9687 7.60238H67.4907L67.5087 19.2844C67.5087 19.5244 67.5027 19.7404 67.4907 19.9324C67.4787 20.1124 67.4547 20.3044 67.4187 20.5084C67.6107 20.4964 67.7967 20.4904 67.9767 20.4904C68.1687 20.4784 68.3607 20.4664 68.5527 20.4544V21.1924H64.8807V20.6524ZM70.685 20.6524C71.057 20.6524 71.315 20.5624 71.459 20.3824C71.603 20.1904 71.687 19.9324 71.711 19.6084C71.735 19.2724 71.747 18.8884 71.747 18.4564V9.94238C71.747 9.75038 71.747 9.57038 71.747 9.40238C71.759 9.22238 71.777 9.01238 71.801 8.77238C71.585 8.78438 71.369 8.79638 71.153 8.80838C70.949 8.82038 70.739 8.83238 70.523 8.84438V8.08838C71.051 8.08838 71.459 8.06438 71.747 8.01638C72.047 7.96838 72.269 7.90838 72.413 7.83638C72.569 7.76438 72.689 7.68638 72.773 7.60238H73.295L73.313 19.2844C73.313 19.5244 73.307 19.7404 73.295 19.9324C73.283 20.1124 73.259 20.3044 73.223 20.5084C73.415 20.4964 73.601 20.4904 73.781 20.4904C73.973 20.4784 74.165 20.4664 74.357 20.4544V21.1924H70.685V20.6524ZM76.6693 20.6524C77.0413 20.6524 77.2993 20.5624 77.4433 20.3824C77.5873 20.1904 77.6713 19.9324 77.6953 19.6084C77.7193 19.2724 77.7313 18.8884 77.7313 18.4564V14.3524C77.7313 14.1604 77.7373 13.9804 77.7493 13.8124C77.7613 13.6324 77.7793 13.4224 77.8033 13.1824C77.5873 13.1944 77.3713 13.2064 77.1553 13.2184C76.9513 13.2304 76.7413 13.2424 76.5253 13.2544V12.4984C77.0533 12.4984 77.4613 12.4744 77.7493 12.4264C78.0373 12.3784 78.2533 12.3184 78.3973 12.2464C78.5533 12.1744 78.6733 12.0964 78.7573 12.0124H79.2793V19.2844C79.2793 19.5244 79.2733 19.7404 79.2613 19.9324C79.2613 20.1124 79.2433 20.3044 79.2073 20.5084C79.3993 20.4964 79.5853 20.4904 79.7653 20.4904C79.9573 20.4784 80.1493 20.4664 80.3413 20.4544V21.1924H76.6693V20.6524ZM78.3973 10.2304C78.1453 10.2304 77.9233 10.1284 77.7313 9.92438C77.5393 9.72038 77.4433 9.46838 77.4433 9.16838C77.4433 8.86838 77.5393 8.61638 77.7313 8.41238C77.9353 8.19638 78.1633 8.08838 78.4153 8.08838C78.6913 8.08838 78.9193 8.19638 79.0993 8.41238C79.2913 8.61638 79.3873 8.86838 79.3873 9.16838C79.3873 9.46838 79.2853 9.72038 79.0813 9.92438C78.8893 10.1284 78.6613 10.2304 78.3973 10.2304ZM82.6318 21.1924V20.6524C83.0038 20.6524 83.2618 20.5624 83.4058 20.3824C83.5498 20.1904 83.6338 19.9324 83.6578 19.6084C83.6818 19.2724 83.6938 18.8884 83.6938 18.4564L83.7118 14.3524C83.7118 14.1604 83.7118 13.9684 83.7118 13.7764C83.7238 13.5844 83.7478 13.3864 83.7838 13.1824C83.5678 13.1944 83.3518 13.2064 83.1358 13.2184C82.9318 13.2304 82.7218 13.2424 82.5058 13.2544V12.4984C83.0338 12.4984 83.4298 12.4744 83.6938 12.4264C83.9698 12.3784 84.1738 12.3184 84.3058 12.2464C84.4378 12.1744 84.5458 12.0964 84.6298 12.0124H85.1518C85.1638 12.0964 85.1698 12.1924 85.1698 12.3004C85.1818 12.4084 85.1938 12.5284 85.2058 12.6604C85.2178 12.7924 85.2238 12.9424 85.2238 13.1104C85.4878 12.8824 85.7758 12.6784 86.0878 12.4984C86.4118 12.3184 86.7478 12.1744 87.0958 12.0664C87.4558 11.9584 87.8098 11.9044 88.1578 11.9044C89.2018 11.9044 89.9638 12.2344 90.4438 12.8944C90.9238 13.5424 91.1638 14.5564 91.1638 15.9364V19.2844C91.1638 19.5244 91.1578 19.7404 91.1458 19.9324C91.1458 20.1124 91.1278 20.3044 91.0918 20.5084C91.2838 20.4964 91.4698 20.4904 91.6498 20.4904C91.8418 20.4784 92.0338 20.4664 92.2258 20.4544V21.1924H88.5538V20.6524C88.9258 20.6524 89.1838 20.5624 89.3278 20.3824C89.4718 20.1904 89.5558 19.9324 89.5798 19.6084C89.6038 19.2724 89.6158 18.8884 89.6158 18.4564V15.9364C89.6038 14.9044 89.4298 14.1244 89.0938 13.5964C88.7698 13.0684 88.2538 12.8104 87.5458 12.8224C87.1138 12.8344 86.6878 12.9484 86.2678 13.1644C85.8598 13.3804 85.5178 13.6564 85.2418 13.9924C85.2538 14.0884 85.2598 14.1964 85.2598 14.3164C85.2598 14.4364 85.2598 14.5624 85.2598 14.6944L85.2418 19.2844C85.2418 19.5244 85.2358 19.7404 85.2238 19.9324C85.2238 20.1124 85.2058 20.3044 85.1698 20.5084C85.3618 20.4964 85.5478 20.4904 85.7278 20.4904C85.9198 20.4784 86.1118 20.4664 86.3038 20.4544V21.1924H82.6318ZM98.8034 26.0704C97.7234 26.0704 96.8534 25.9504 96.1934 25.7104C95.5334 25.4704 95.0534 25.1644 94.7534 24.7924C94.4534 24.4204 94.3034 24.0364 94.3034 23.6404C94.3034 23.2684 94.3874 22.9384 94.5554 22.6504C94.7354 22.3744 94.9514 22.1344 95.2034 21.9304C95.4674 21.7264 95.7194 21.5764 95.9594 21.4804C95.5754 21.3484 95.2694 21.1744 95.0414 20.9584C94.8254 20.7304 94.7174 20.4304 94.7174 20.0584C94.7174 19.6384 94.8854 19.2484 95.2214 18.8884C95.5574 18.5164 95.9894 18.2884 96.5174 18.2044C95.9654 17.9404 95.5214 17.5744 95.1854 17.1064C94.8614 16.6384 94.6994 16.0924 94.6994 15.4684C94.6994 14.7484 94.8854 14.1244 95.2574 13.5964C95.6294 13.0564 96.1034 12.6424 96.6794 12.3544C97.2674 12.0544 97.8734 11.9044 98.4974 11.9044C98.8934 11.9044 99.2894 11.9644 99.6854 12.0844C100.081 12.1924 100.447 12.3544 100.783 12.5704C100.903 12.2344 101.071 11.9344 101.287 11.6704C101.515 11.4064 101.773 11.2024 102.061 11.0584C102.349 10.9024 102.649 10.8244 102.961 10.8244C103.273 10.8244 103.507 10.9084 103.663 11.0764C103.831 11.2324 103.915 11.4484 103.915 11.7244C103.915 11.8084 103.891 11.9104 103.843 12.0304C103.795 12.1504 103.711 12.2524 103.591 12.3364C103.483 12.4204 103.333 12.4624 103.141 12.4624C102.937 12.4624 102.769 12.4024 102.637 12.2824C102.505 12.1624 102.421 12.0124 102.385 11.8324C102.085 11.8804 101.851 12.0244 101.683 12.2644C101.515 12.4924 101.401 12.7444 101.341 13.0204C101.629 13.2844 101.857 13.6024 102.025 13.9744C102.205 14.3464 102.295 14.7424 102.295 15.1624C102.295 15.8344 102.115 16.4344 101.755 16.9624C101.407 17.4904 100.945 17.9044 100.369 18.2044C99.7934 18.4924 99.1694 18.6364 98.4974 18.6364C98.2694 18.6364 98.0714 18.6244 97.9034 18.6004C97.7354 18.5644 97.5314 18.5464 97.2914 18.5464C96.8474 18.5464 96.4874 18.6544 96.2114 18.8704C95.9354 19.0864 95.8394 19.3444 95.9234 19.6444C96.0194 19.9324 96.3134 20.1184 96.8054 20.2024C97.2974 20.2744 97.9574 20.3284 98.7854 20.3644C99.7094 20.4004 100.501 20.5084 101.161 20.6884C101.821 20.8684 102.325 21.1444 102.673 21.5164C103.033 21.9004 103.213 22.4164 103.213 23.0644C103.213 23.5444 103.081 23.9704 102.817 24.3424C102.565 24.7264 102.223 25.0444 101.791 25.2964C101.371 25.5484 100.897 25.7404 100.369 25.8724C99.8534 26.0044 99.3314 26.0704 98.8034 26.0704ZM98.7854 25.3684C99.8174 25.3684 100.621 25.1764 101.197 24.7924C101.773 24.4084 102.061 23.9584 102.061 23.4424C102.061 22.9984 101.911 22.6564 101.611 22.4164C101.311 22.1884 100.903 22.0264 100.387 21.9304C99.8714 21.8464 99.2774 21.7984 98.6054 21.7864C98.2814 21.7744 97.9634 21.7564 97.6514 21.7324C97.3394 21.7204 97.0394 21.6904 96.7514 21.6424C96.4274 21.8584 96.1754 22.1224 95.9954 22.4344C95.8154 22.7464 95.7254 23.0764 95.7254 23.4244C95.7254 24.0124 96.0014 24.4804 96.5534 24.8284C97.1174 25.1884 97.8614 25.3684 98.7854 25.3684ZM98.5514 17.9884C98.9954 17.9884 99.3614 17.8804 99.6494 17.6644C99.9494 17.4484 100.171 17.1544 100.315 16.7824C100.471 16.4104 100.549 15.9904 100.549 15.5224C100.549 14.9944 100.471 14.5024 100.315 14.0464C100.159 13.5904 99.9254 13.2244 99.6134 12.9484C99.3134 12.6724 98.9294 12.5344 98.4614 12.5344C97.8134 12.5344 97.3094 12.7804 96.9494 13.2724C96.6014 13.7524 96.4274 14.3524 96.4274 15.0724C96.4274 15.6484 96.5114 16.1584 96.6794 16.6024C96.8474 17.0344 97.0874 17.3764 97.3994 17.6284C97.7234 17.8684 98.1074 17.9884 98.5514 17.9884ZM110.781 25.7824V25.2424C111.153 25.2424 111.411 25.1464 111.555 24.9544C111.699 24.7744 111.783 24.5164 111.807 24.1804C111.831 23.8564 111.843 23.4784 111.843 23.0464L111.879 14.3524C111.879 14.1604 111.879 13.9684 111.879 13.7764C111.891 13.5844 111.915 13.3864 111.951 13.1824C111.735 13.1944 111.519 13.2064 111.303 13.2184C111.099 13.2304 110.889 13.2424 110.673 13.2544V12.4984C111.201 12.4984 111.597 12.4744 111.861 12.4264C112.137 12.3784 112.335 12.3184 112.455 12.2464C112.587 12.1744 112.695 12.0964 112.779 12.0124H113.319C113.331 12.1324 113.343 12.2764 113.355 12.4444C113.367 12.6004 113.379 12.7804 113.391 12.9844C113.751 12.6604 114.177 12.4024 114.669 12.2104C115.173 12.0064 115.677 11.9044 116.181 11.9044C116.877 11.9044 117.525 12.0844 118.125 12.4444C118.725 12.8044 119.211 13.3204 119.583 13.9924C119.955 14.6524 120.141 15.4444 120.141 16.3684C120.141 17.3884 119.925 18.2824 119.493 19.0504C119.073 19.8184 118.515 20.4184 117.819 20.8504C117.123 21.2704 116.367 21.4804 115.551 21.4804C115.131 21.4804 114.741 21.4264 114.381 21.3184C114.033 21.2224 113.703 21.0784 113.391 20.8864V23.8744C113.391 24.1144 113.385 24.3244 113.373 24.5044C113.373 24.6964 113.355 24.8944 113.319 25.0984C113.511 25.0864 113.697 25.0744 113.877 25.0624C114.069 25.0624 114.261 25.0564 114.453 25.0444V25.7824H110.781ZM115.515 20.7604C116.091 20.7604 116.583 20.5864 116.991 20.2384C117.411 19.8784 117.729 19.3924 117.945 18.7804C118.173 18.1564 118.287 17.4484 118.287 16.6564C118.287 16.0084 118.191 15.3904 117.999 14.8024C117.819 14.2024 117.525 13.7164 117.117 13.3444C116.721 12.9724 116.193 12.7864 115.533 12.7864C115.125 12.7864 114.729 12.8884 114.345 13.0924C113.973 13.2844 113.661 13.5184 113.409 13.7944C113.409 13.8424 113.409 13.9144 113.409 14.0104C113.421 14.0944 113.427 14.2504 113.427 14.4784C113.427 14.6944 113.427 15.0244 113.427 15.4684C113.427 15.9004 113.421 16.4884 113.409 17.2324C113.409 17.9764 113.409 18.9184 113.409 20.0584C113.709 20.2864 114.033 20.4604 114.381 20.5804C114.741 20.7004 115.119 20.7604 115.515 20.7604ZM122.583 20.6524C122.955 20.6524 123.213 20.5624 123.357 20.3824C123.501 20.1904 123.585 19.9324 123.609 19.6084C123.633 19.2724 123.645 18.8884 123.645 18.4564V14.3524C123.645 14.1604 123.645 13.9684 123.645 13.7764C123.657 13.5844 123.681 13.3864 123.717 13.1824C123.501 13.1944 123.285 13.2064 123.069 13.2184C122.865 13.2184 122.655 13.2244 122.439 13.2364V12.4984H122.997C123.513 12.4984 123.867 12.4504 124.059 12.3544C124.263 12.2464 124.431 12.1324 124.563 12.0124H125.085C125.109 12.2044 125.127 12.4444 125.139 12.7324C125.151 13.0084 125.163 13.3624 125.175 13.7944C125.355 13.4944 125.601 13.2004 125.913 12.9124C126.225 12.6244 126.573 12.3844 126.957 12.1924C127.353 12.0004 127.767 11.9044 128.199 11.9044C128.535 11.9044 128.829 11.9944 129.081 12.1744C129.333 12.3544 129.459 12.6424 129.459 13.0384C129.459 13.1344 129.429 13.2544 129.369 13.3984C129.309 13.5304 129.213 13.6504 129.081 13.7584C128.949 13.8544 128.775 13.9024 128.559 13.9024C128.295 13.8904 128.085 13.7884 127.929 13.5964C127.773 13.3924 127.713 13.1584 127.749 12.8944C127.449 12.8824 127.137 12.9604 126.813 13.1284C126.501 13.2964 126.207 13.5304 125.931 13.8304C125.655 14.1184 125.409 14.4604 125.193 14.8564L125.211 19.2844C125.211 19.5244 125.205 19.7404 125.193 19.9324C125.193 20.1124 125.175 20.3044 125.139 20.5084C125.331 20.4964 125.517 20.4904 125.697 20.4904C125.889 20.4784 126.081 20.4664 126.273 20.4544V21.1924H122.583V20.6524ZM135.611 21.4804C134.771 21.4804 134.009 21.2884 133.325 20.9044C132.641 20.5084 132.095 19.9684 131.687 19.2844C131.291 18.5884 131.093 17.7964 131.093 16.9084C131.093 15.9604 131.291 15.1084 131.687 14.3524C132.083 13.5964 132.623 13.0024 133.307 12.5704C133.991 12.1264 134.759 11.9044 135.611 11.9044C136.451 11.9044 137.213 12.1084 137.897 12.5164C138.581 12.9124 139.127 13.4524 139.535 14.1364C139.943 14.8204 140.147 15.6004 140.147 16.4764C140.147 17.4004 139.943 18.2464 139.535 19.0144C139.139 19.7704 138.599 20.3704 137.915 20.8144C137.231 21.2584 136.463 21.4804 135.611 21.4804ZM135.755 20.7604C136.391 20.7604 136.895 20.5804 137.267 20.2204C137.639 19.8604 137.903 19.3924 138.059 18.8164C138.227 18.2404 138.311 17.6344 138.311 16.9984C138.311 16.4584 138.257 15.9304 138.149 15.4144C138.053 14.8864 137.897 14.4124 137.681 13.9924C137.465 13.5604 137.183 13.2184 136.835 12.9664C136.499 12.7144 136.091 12.5884 135.611 12.5884C134.987 12.5884 134.477 12.7684 134.081 13.1284C133.685 13.4884 133.391 13.9564 133.199 14.5324C133.019 15.1084 132.929 15.7264 132.929 16.3864C132.929 17.1304 133.031 17.8384 133.235 18.5104C133.439 19.1704 133.751 19.7104 134.171 20.1304C134.591 20.5504 135.119 20.7604 135.755 20.7604ZM142.415 25.7824V25.2424C142.787 25.2424 143.045 25.1464 143.189 24.9544C143.333 24.7744 143.417 24.5164 143.441 24.1804C143.465 23.8564 143.477 23.4784 143.477 23.0464L143.513 14.3524C143.513 14.1604 143.513 13.9684 143.513 13.7764C143.525 13.5844 143.549 13.3864 143.585 13.1824C143.369 13.1944 143.153 13.2064 142.937 13.2184C142.733 13.2304 142.523 13.2424 142.307 13.2544V12.4984C142.835 12.4984 143.231 12.4744 143.495 12.4264C143.771 12.3784 143.969 12.3184 144.089 12.2464C144.221 12.1744 144.329 12.0964 144.413 12.0124H144.953C144.965 12.1324 144.977 12.2764 144.989 12.4444C145.001 12.6004 145.013 12.7804 145.025 12.9844C145.385 12.6604 145.811 12.4024 146.303 12.2104C146.807 12.0064 147.311 11.9044 147.815 11.9044C148.511 11.9044 149.159 12.0844 149.759 12.4444C150.359 12.8044 150.845 13.3204 151.217 13.9924C151.589 14.6524 151.775 15.4444 151.775 16.3684C151.775 17.3884 151.559 18.2824 151.127 19.0504C150.707 19.8184 150.149 20.4184 149.453 20.8504C148.757 21.2704 148.001 21.4804 147.185 21.4804C146.765 21.4804 146.375 21.4264 146.015 21.3184C145.667 21.2224 145.337 21.0784 145.025 20.8864V23.8744C145.025 24.1144 145.019 24.3244 145.007 24.5044C145.007 24.6964 144.989 24.8944 144.953 25.0984C145.145 25.0864 145.331 25.0744 145.511 25.0624C145.703 25.0624 145.895 25.0564 146.087 25.0444V25.7824H142.415ZM147.149 20.7604C147.725 20.7604 148.217 20.5864 148.625 20.2384C149.045 19.8784 149.363 19.3924 149.579 18.7804C149.807 18.1564 149.921 17.4484 149.921 16.6564C149.921 16.0084 149.825 15.3904 149.633 14.8024C149.453 14.2024 149.159 13.7164 148.751 13.3444C148.355 12.9724 147.827 12.7864 147.167 12.7864C146.759 12.7864 146.363 12.8884 145.979 13.0924C145.607 13.2844 145.295 13.5184 145.043 13.7944C145.043 13.8424 145.043 13.9144 145.043 14.0104C145.055 14.0944 145.061 14.2504 145.061 14.4784C145.061 14.6944 145.061 15.0244 145.061 15.4684C145.061 15.9004 145.055 16.4884 145.043 17.2324C145.043 17.9764 145.043 18.9184 145.043 20.0584C145.343 20.2864 145.667 20.4604 146.015 20.5804C146.375 20.7004 146.753 20.7604 147.149 20.7604ZM158.573 21.4804C157.745 21.4804 156.995 21.2884 156.323 20.9044C155.663 20.5084 155.141 19.9564 154.757 19.2484C154.373 18.5284 154.181 17.6824 154.181 16.7104C154.181 15.8704 154.367 15.0844 154.739 14.3524C155.123 13.6204 155.657 13.0324 156.341 12.5884C157.025 12.1324 157.817 11.9044 158.717 11.9044C159.221 11.9044 159.689 11.9884 160.121 12.1564C160.565 12.3124 160.955 12.5584 161.291 12.8944C161.627 13.2184 161.891 13.6324 162.083 14.1364C162.275 14.6284 162.371 15.2104 162.371 15.8824L156.035 15.9904C156.035 16.9024 156.131 17.7064 156.323 18.4024C156.527 19.0864 156.851 19.6204 157.295 20.0044C157.739 20.3764 158.309 20.5624 159.005 20.5624C159.377 20.5624 159.755 20.4964 160.139 20.3644C160.535 20.2324 160.901 20.0524 161.237 19.8244C161.573 19.5964 161.843 19.3444 162.047 19.0684L162.479 19.4284C162.155 19.9324 161.765 20.3344 161.309 20.6344C160.853 20.9344 160.385 21.1504 159.905 21.2824C159.425 21.4144 158.981 21.4804 158.573 21.4804ZM156.089 15.2344H160.679C160.679 14.8024 160.613 14.3884 160.481 13.9924C160.361 13.5844 160.157 13.2544 159.869 13.0024C159.581 12.7384 159.203 12.6064 158.735 12.6064C158.039 12.6064 157.457 12.8164 156.989 13.2364C156.533 13.6444 156.233 14.3104 156.089 15.2344ZM164.873 20.6524C165.245 20.6524 165.503 20.5624 165.647 20.3824C165.791 20.1904 165.875 19.9324 165.899 19.6084C165.923 19.2724 165.935 18.8884 165.935 18.4564V14.3524C165.935 14.1604 165.935 13.9684 165.935 13.7764C165.947 13.5844 165.971 13.3864 166.007 13.1824C165.791 13.1944 165.575 13.2064 165.359 13.2184C165.155 13.2184 164.945 13.2244 164.729 13.2364V12.4984H165.287C165.803 12.4984 166.157 12.4504 166.349 12.3544C166.553 12.2464 166.721 12.1324 166.853 12.0124H167.375C167.399 12.2044 167.417 12.4444 167.429 12.7324C167.441 13.0084 167.453 13.3624 167.465 13.7944C167.645 13.4944 167.891 13.2004 168.203 12.9124C168.515 12.6244 168.863 12.3844 169.247 12.1924C169.643 12.0004 170.057 11.9044 170.489 11.9044C170.825 11.9044 171.119 11.9944 171.371 12.1744C171.623 12.3544 171.749 12.6424 171.749 13.0384C171.749 13.1344 171.719 13.2544 171.659 13.3984C171.599 13.5304 171.503 13.6504 171.371 13.7584C171.239 13.8544 171.065 13.9024 170.849 13.9024C170.585 13.8904 170.375 13.7884 170.219 13.5964C170.063 13.3924 170.003 13.1584 170.039 12.8944C169.739 12.8824 169.427 12.9604 169.103 13.1284C168.791 13.2964 168.497 13.5304 168.221 13.8304C167.945 14.1184 167.699 14.4604 167.483 14.8564L167.501 19.2844C167.501 19.5244 167.495 19.7404 167.483 19.9324C167.483 20.1124 167.465 20.3044 167.429 20.5084C167.621 20.4964 167.807 20.4904 167.987 20.4904C168.179 20.4784 168.371 20.4664 168.563 20.4544V21.1924H164.873V20.6524ZM177.067 21.4804C176.791 21.4804 176.509 21.4384 176.221 21.3544C175.933 21.2824 175.663 21.1324 175.411 20.9044C175.171 20.6764 174.979 20.3464 174.835 19.9144C174.691 19.4704 174.619 18.8884 174.619 18.1684L174.655 12.9484L173.269 12.9664V12.1924C173.581 12.1804 173.899 12.0664 174.223 11.8504C174.547 11.6224 174.835 11.3164 175.087 10.9324C175.351 10.5484 175.531 10.1284 175.627 9.67238H176.239V12.1924H179.263V12.8944L176.239 12.9304L176.203 17.9344C176.203 18.4744 176.245 18.9364 176.329 19.3204C176.425 19.6924 176.575 19.9744 176.779 20.1664C176.983 20.3584 177.247 20.4544 177.571 20.4544C177.907 20.4544 178.219 20.3584 178.507 20.1664C178.807 19.9744 179.071 19.7104 179.299 19.3744L179.785 19.7704C179.521 20.1664 179.257 20.4784 178.993 20.7064C178.741 20.9344 178.495 21.1024 178.255 21.2104C178.015 21.3304 177.793 21.4024 177.589 21.4264C177.385 21.4624 177.211 21.4804 177.067 21.4804ZM182.965 26.0704C182.593 26.0704 182.275 25.9804 182.011 25.8004C181.747 25.6204 181.615 25.3444 181.615 24.9724C181.615 24.7564 181.687 24.5584 181.831 24.3784C181.975 24.1984 182.161 24.1084 182.389 24.1084C182.677 24.0964 182.869 24.1864 182.965 24.3784C183.073 24.5704 183.127 24.7384 183.127 24.8824C183.127 24.9184 183.127 24.9544 183.127 24.9904C183.127 25.0384 183.121 25.0864 183.109 25.1344C183.145 25.1584 183.211 25.1704 183.307 25.1704C183.451 25.1704 183.607 25.1104 183.775 24.9904C183.943 24.8704 184.093 24.6964 184.225 24.4684C184.381 24.2044 184.561 23.8084 184.765 23.2804C184.981 22.7524 185.221 22.1224 185.485 21.3904L182.677 15.3784C182.365 14.7064 182.137 14.1724 181.993 13.7764C181.861 13.3804 181.771 13.0864 181.723 12.8944L180.859 12.9304V12.1924H184.585V12.7324H184.513C184.009 12.7684 183.733 12.9604 183.685 13.3084C183.637 13.6444 183.775 14.1604 184.099 14.8564L186.205 19.3744C186.481 18.6064 186.745 17.8504 186.997 17.1064C187.249 16.3504 187.501 15.6004 187.753 14.8564C187.849 14.5924 187.945 14.3224 188.041 14.0464C188.149 13.7584 188.251 13.5064 188.347 13.2904C188.455 13.0624 188.551 12.9184 188.635 12.8584L187.393 12.9304V12.1924H190.219V12.7324C189.775 12.9004 189.439 13.1824 189.211 13.5784C188.995 13.9624 188.773 14.4604 188.545 15.0724L186.295 21.3544C185.935 22.3624 185.605 23.2144 185.305 23.9104C185.005 24.6184 184.675 25.1524 184.315 25.5124C183.955 25.8844 183.505 26.0704 182.965 26.0704Z" fill="#FAFAFA"/>
</g>
<defs>
<clipPath id="clip0_102_287">
<rect width="190.702" height="30" fill="white" transform="translate(0.5)"/>
</clipPath>
</defs>
</svg>
