<svg width="165" height="30" viewBox="0 0 165 30" fill="none" xmlns="http://www.w3.org/2000/svg">
<g clip-path="url(#clip0_102_308)">
<path d="M15.1673 18.9625L22.4548 26.25C23.0798 26.855 23.9176 27.1901 24.7874 27.1831C25.6573 27.176 26.4895 26.8273 27.1046 26.2122C27.7197 25.5972 28.0683 24.7649 28.0754 23.8951C28.0825 23.0253 27.7474 22.1875 27.1423 21.5625L19.7961 14.2162M15.1673 18.9625L18.2873 15.175C18.6836 14.695 19.2123 14.3925 19.7973 14.2175C20.4848 14.0125 21.2511 13.9825 21.9761 14.0425C22.9534 14.1264 23.9356 13.9533 24.8253 13.5404C25.7151 13.1275 26.4813 12.489 27.0481 11.6885C27.6149 10.888 27.9625 9.95312 28.0565 8.97675C28.1504 8.00037 27.9874 7.01641 27.5836 6.1225L23.4886 10.2187C22.8035 10.0603 22.1766 9.71271 21.6794 9.21547C21.1821 8.71823 20.8345 8.09137 20.6761 7.40625L24.7711 3.31125C23.8772 2.90745 22.8932 2.74443 21.9168 2.83835C20.9405 2.93228 20.0056 3.27989 19.2051 3.84669C18.4045 4.41348 17.7661 5.17977 17.3532 6.06949C16.9403 6.95922 16.7672 7.94146 16.8511 8.91875C16.9648 10.2637 16.7623 11.7487 15.7211 12.6062L15.5936 12.7125M15.1673 18.9625L9.34858 26.0287C9.06657 26.3725 8.71571 26.6534 8.31858 26.8534C7.92144 27.0533 7.48684 27.1679 7.04274 27.1898C6.59865 27.2117 6.15489 27.1403 5.74004 26.9803C5.32519 26.8203 4.94844 26.5752 4.63404 26.2608C4.31963 25.9464 4.07454 25.5696 3.91454 25.1548C3.75453 24.7399 3.68316 24.2962 3.70502 23.8521C3.72688 23.408 3.84148 22.9734 4.04145 22.5763C4.24142 22.1791 4.52232 21.8283 4.86608 21.5462L13.4123 14.5087L8.27858 9.375H6.51733L3.70483 4.6875L5.57983 2.8125L10.2673 5.625V7.38625L15.5923 12.7112L13.4111 14.5075M23.8611 22.9687L20.5798 19.6875M6.97608 23.9062H6.98608V23.9162H6.97608V23.9062Z" stroke="#FAFAFA" stroke-width="1.875" stroke-linecap="round" stroke-linejoin="round"/>
<path d="M53.8366 12.6064C53.7166 11.4784 53.3206 10.6024 52.6486 9.97838C51.9886 9.35438 51.1366 9.04238 50.0926 9.04238C49.4566 9.04238 48.8566 9.18038 48.2926 9.45638C47.7406 9.72038 47.2546 10.1044 46.8346 10.6084C46.4146 11.1124 46.0846 11.7184 45.8446 12.4264C45.6046 13.1344 45.4846 13.9324 45.4846 14.8204C45.4846 15.9484 45.7006 16.9444 46.1326 17.8084C46.5646 18.6724 47.1466 19.3444 47.8786 19.8244C48.6106 20.3044 49.4206 20.5444 50.3086 20.5444C51.0886 20.5444 51.8566 20.3704 52.6126 20.0224C53.3686 19.6624 53.9866 19.1464 54.4666 18.4744L54.9346 18.8524C54.4186 19.5604 53.8606 20.1064 53.2606 20.4904C52.6606 20.8744 52.0606 21.1324 51.4606 21.2644C50.8726 21.4084 50.3326 21.4804 49.8406 21.4804C48.9406 21.4804 48.1126 21.3184 47.3566 20.9944C46.6126 20.6704 45.9646 20.2204 45.4126 19.6444C44.8726 19.0564 44.4526 18.3784 44.1526 17.6104C43.8646 16.8304 43.7206 15.9904 43.7206 15.0904C43.7206 14.2384 43.8466 13.4104 44.0986 12.6064C44.3626 11.8024 44.7526 11.0764 45.2686 10.4284C45.7846 9.78038 46.4326 9.26438 47.2126 8.88038C48.0046 8.49638 48.9226 8.30438 49.9666 8.30438C50.6386 8.30438 51.2746 8.39438 51.8746 8.57438C52.4746 8.75438 53.0506 9.03038 53.6026 9.40238L53.5126 8.43038H54.4846V12.6064H53.8366ZM61.6345 21.4804C60.7945 21.4804 60.0325 21.2884 59.3485 20.9044C58.6645 20.5084 58.1185 19.9684 57.7105 19.2844C57.3145 18.5884 57.1165 17.7964 57.1165 16.9084C57.1165 15.9604 57.3145 15.1084 57.7105 14.3524C58.1065 13.5964 58.6465 13.0024 59.3305 12.5704C60.0145 12.1264 60.7825 11.9044 61.6345 11.9044C62.4745 11.9044 63.2365 12.1084 63.9205 12.5164C64.6045 12.9124 65.1505 13.4524 65.5585 14.1364C65.9665 14.8204 66.1705 15.6004 66.1705 16.4764C66.1705 17.4004 65.9665 18.2464 65.5585 19.0144C65.1625 19.7704 64.6225 20.3704 63.9385 20.8144C63.2545 21.2584 62.4865 21.4804 61.6345 21.4804ZM61.7785 20.7604C62.4145 20.7604 62.9185 20.5804 63.2905 20.2204C63.6625 19.8604 63.9265 19.3924 64.0825 18.8164C64.2505 18.2404 64.3345 17.6344 64.3345 16.9984C64.3345 16.4584 64.2805 15.9304 64.1725 15.4144C64.0765 14.8864 63.9205 14.4124 63.7045 13.9924C63.4885 13.5604 63.2065 13.2184 62.8585 12.9664C62.5225 12.7144 62.1145 12.5884 61.6345 12.5884C61.0105 12.5884 60.5005 12.7684 60.1045 13.1284C59.7085 13.4884 59.4145 13.9564 59.2225 14.5324C59.0425 15.1084 58.9525 15.7264 58.9525 16.3864C58.9525 17.1304 59.0545 17.8384 59.2585 18.5104C59.4625 19.1704 59.7745 19.7104 60.1945 20.1304C60.6145 20.5504 61.1425 20.7604 61.7785 20.7604ZM68.5998 21.1924V20.6524C68.9718 20.6524 69.2298 20.5624 69.3738 20.3824C69.5178 20.1904 69.6018 19.9324 69.6258 19.6084C69.6498 19.2724 69.6618 18.8884 69.6618 18.4564L69.6798 14.3524C69.6798 14.1604 69.6798 13.9684 69.6798 13.7764C69.6918 13.5844 69.7158 13.3864 69.7518 13.1824C69.5358 13.1944 69.3198 13.2064 69.1038 13.2184C68.8998 13.2304 68.6898 13.2424 68.4738 13.2544V12.4984C69.0018 12.4984 69.3978 12.4744 69.6618 12.4264C69.9378 12.3784 70.1418 12.3184 70.2738 12.2464C70.4058 12.1744 70.5138 12.0964 70.5978 12.0124H71.1198C71.1318 12.0964 71.1378 12.1924 71.1378 12.3004C71.1498 12.4084 71.1618 12.5284 71.1738 12.6604C71.1858 12.7924 71.1918 12.9424 71.1918 13.1104C71.4558 12.8824 71.7438 12.6784 72.0558 12.4984C72.3798 12.3184 72.7158 12.1744 73.0638 12.0664C73.4238 11.9584 73.7778 11.9044 74.1258 11.9044C75.1698 11.9044 75.9318 12.2344 76.4118 12.8944C76.8918 13.5424 77.1318 14.5564 77.1318 15.9364V19.2844C77.1318 19.5244 77.1258 19.7404 77.1138 19.9324C77.1138 20.1124 77.0958 20.3044 77.0598 20.5084C77.2518 20.4964 77.4378 20.4904 77.6178 20.4904C77.8098 20.4784 78.0018 20.4664 78.1938 20.4544V21.1924H74.5218V20.6524C74.8938 20.6524 75.1518 20.5624 75.2958 20.3824C75.4398 20.1904 75.5238 19.9324 75.5478 19.6084C75.5718 19.2724 75.5838 18.8884 75.5838 18.4564V15.9364C75.5718 14.9044 75.3978 14.1244 75.0618 13.5964C74.7378 13.0684 74.2218 12.8104 73.5138 12.8224C73.0818 12.8344 72.6558 12.9484 72.2358 13.1644C71.8278 13.3804 71.4858 13.6564 71.2098 13.9924C71.2218 14.0884 71.2278 14.1964 71.2278 14.3164C71.2278 14.4364 71.2278 14.5624 71.2278 14.6944L71.2098 19.2844C71.2098 19.5244 71.2038 19.7404 71.1918 19.9324C71.1918 20.1124 71.1738 20.3044 71.1378 20.5084C71.3298 20.4964 71.5158 20.4904 71.6958 20.4904C71.8878 20.4784 72.0798 20.4664 72.2718 20.4544V21.1924H68.5998ZM84.1234 21.4804C83.5234 21.4804 82.9894 21.3964 82.5214 21.2284C82.0534 21.0724 81.6694 20.8924 81.3694 20.6884L81.4414 21.3184H80.6854L80.5774 18.2224H81.1354C81.1594 18.7144 81.2974 19.1584 81.5494 19.5544C81.8014 19.9384 82.1254 20.2384 82.5214 20.4544C82.9174 20.6704 83.3434 20.7784 83.7994 20.7784C84.1114 20.7784 84.4174 20.7304 84.7174 20.6344C85.0174 20.5264 85.2694 20.3704 85.4734 20.1664C85.6774 19.9504 85.7794 19.6804 85.7794 19.3564C85.7794 19.0204 85.6774 18.7444 85.4734 18.5284C85.2814 18.3004 85.0234 18.1024 84.6994 17.9344C84.3754 17.7664 84.0274 17.6104 83.6554 17.4664C83.2954 17.3224 82.9354 17.1724 82.5754 17.0164C82.2154 16.8604 81.8794 16.6744 81.5674 16.4584C81.2674 16.2424 81.0274 15.9784 80.8474 15.6664C80.6674 15.3544 80.5774 14.9704 80.5774 14.5144C80.5774 14.2624 80.6254 13.9864 80.7214 13.6864C80.8174 13.3864 80.9794 13.1044 81.2074 12.8404C81.4354 12.5644 81.7474 12.3424 82.1434 12.1744C82.5394 11.9944 83.0434 11.9044 83.6554 11.9044C83.9794 11.9044 84.3394 11.9584 84.7354 12.0664C85.1314 12.1744 85.5154 12.3784 85.8874 12.6784L85.8514 11.9944H86.6074V15.1444H86.0314C86.0074 14.7244 85.9114 14.3224 85.7434 13.9384C85.5754 13.5424 85.3294 13.2184 85.0054 12.9664C84.6814 12.7024 84.2614 12.5704 83.7454 12.5704C83.1934 12.5704 82.7614 12.7084 82.4494 12.9844C82.1374 13.2604 81.9814 13.5784 81.9814 13.9384C81.9814 14.3104 82.0954 14.6224 82.3234 14.8744C82.5634 15.1144 82.8694 15.3244 83.2414 15.5044C83.6134 15.6844 84.0094 15.8584 84.4294 16.0264C84.8854 16.2184 85.3294 16.4284 85.7614 16.6564C86.1934 16.8844 86.5474 17.1724 86.8234 17.5204C87.0994 17.8564 87.2374 18.2944 87.2374 18.8344C87.2374 19.4344 87.0814 19.9324 86.7694 20.3284C86.4694 20.7244 86.0794 21.0124 85.5994 21.1924C85.1314 21.3844 84.6394 21.4804 84.1234 21.4804ZM93.0494 21.4804C92.7734 21.4804 92.4914 21.4384 92.2034 21.3544C91.9154 21.2824 91.6454 21.1324 91.3934 20.9044C91.1534 20.6764 90.9614 20.3464 90.8174 19.9144C90.6734 19.4704 90.6014 18.8884 90.6014 18.1684L90.6374 12.9484L89.2514 12.9664V12.1924C89.5634 12.1804 89.8814 12.0664 90.2054 11.8504C90.5294 11.6224 90.8174 11.3164 91.0694 10.9324C91.3334 10.5484 91.5134 10.1284 91.6094 9.67238H92.2214V12.1924H95.2454V12.8944L92.2214 12.9304L92.1854 17.9344C92.1854 18.4744 92.2274 18.9364 92.3114 19.3204C92.4074 19.6924 92.5574 19.9744 92.7614 20.1664C92.9654 20.3584 93.2294 20.4544 93.5534 20.4544C93.8894 20.4544 94.2014 20.3584 94.4894 20.1664C94.7894 19.9744 95.0534 19.7104 95.2814 19.3744L95.7674 19.7704C95.5034 20.1664 95.2394 20.4784 94.9754 20.7064C94.7234 20.9344 94.4774 21.1024 94.2374 21.2104C93.9974 21.3304 93.7754 21.4024 93.5714 21.4264C93.3674 21.4624 93.1934 21.4804 93.0494 21.4804ZM97.5264 20.6524C97.8984 20.6524 98.1564 20.5624 98.3004 20.3824C98.4444 20.1904 98.5284 19.9324 98.5524 19.6084C98.5764 19.2724 98.5884 18.8884 98.5884 18.4564V14.3524C98.5884 14.1604 98.5884 13.9684 98.5884 13.7764C98.6004 13.5844 98.6244 13.3864 98.6604 13.1824C98.4444 13.1944 98.2284 13.2064 98.0124 13.2184C97.8084 13.2184 97.5984 13.2244 97.3824 13.2364V12.4984H97.9404C98.4564 12.4984 98.8104 12.4504 99.0024 12.3544C99.2064 12.2464 99.3744 12.1324 99.5064 12.0124H100.028C100.052 12.2044 100.07 12.4444 100.082 12.7324C100.094 13.0084 100.106 13.3624 100.118 13.7944C100.298 13.4944 100.544 13.2004 100.856 12.9124C101.168 12.6244 101.516 12.3844 101.9 12.1924C102.296 12.0004 102.71 11.9044 103.142 11.9044C103.478 11.9044 103.772 11.9944 104.024 12.1744C104.276 12.3544 104.402 12.6424 104.402 13.0384C104.402 13.1344 104.372 13.2544 104.312 13.3984C104.252 13.5304 104.156 13.6504 104.024 13.7584C103.892 13.8544 103.718 13.9024 103.502 13.9024C103.238 13.8904 103.028 13.7884 102.872 13.5964C102.716 13.3924 102.656 13.1584 102.692 12.8944C102.392 12.8824 102.08 12.9604 101.756 13.1284C101.444 13.2964 101.15 13.5304 100.874 13.8304C100.598 14.1184 100.352 14.4604 100.136 14.8564L100.154 19.2844C100.154 19.5244 100.148 19.7404 100.136 19.9324C100.136 20.1124 100.118 20.3044 100.082 20.5084C100.274 20.4964 100.46 20.4904 100.64 20.4904C100.832 20.4784 101.024 20.4664 101.216 20.4544V21.1924H97.5264V20.6524ZM110.011 21.4804C109.363 21.4804 108.817 21.3604 108.373 21.1204C107.941 20.8804 107.611 20.4724 107.383 19.8964C107.167 19.3204 107.059 18.5404 107.059 17.5564V14.3524C107.059 14.1604 107.059 13.9684 107.059 13.7764C107.071 13.5844 107.095 13.3864 107.131 13.1824C106.927 13.1944 106.717 13.2064 106.501 13.2184C106.297 13.2184 106.093 13.2244 105.889 13.2364V12.4984H106.447C106.963 12.4984 107.335 12.4504 107.563 12.3544C107.803 12.2464 107.989 12.1324 108.121 12.0124H108.643V17.5024C108.643 18.5344 108.787 19.3084 109.075 19.8244C109.375 20.3284 109.879 20.5744 110.587 20.5624C111.043 20.5504 111.475 20.4124 111.883 20.1484C112.303 19.8724 112.639 19.5484 112.891 19.1764V14.5504C112.891 14.2624 112.897 14.0164 112.909 13.8124C112.921 13.5964 112.945 13.3864 112.981 13.1824C112.765 13.1944 112.549 13.2064 112.333 13.2184C112.117 13.2184 111.901 13.2244 111.685 13.2364V12.4984H112.243C112.759 12.4984 113.131 12.4504 113.359 12.3544C113.599 12.2464 113.785 12.1324 113.917 12.0124H114.439L114.421 18.8164C114.421 19.0084 114.415 19.2784 114.403 19.6264C114.391 19.9744 114.373 20.2684 114.349 20.5084C114.565 20.4964 114.781 20.4844 114.997 20.4724C115.213 20.4604 115.429 20.4484 115.645 20.4364V21.1924H113.071C113.035 20.9884 113.005 20.7964 112.981 20.6164C112.969 20.4364 112.957 20.2684 112.945 20.1124C112.573 20.4844 112.123 20.8084 111.595 21.0844C111.067 21.3484 110.539 21.4804 110.011 21.4804ZM122.246 21.4804C121.442 21.4804 120.698 21.3004 120.014 20.9404C119.342 20.5684 118.802 20.0404 118.394 19.3564C117.998 18.6604 117.8 17.8264 117.8 16.8544C117.8 16.2304 117.914 15.6244 118.142 15.0364C118.37 14.4484 118.688 13.9204 119.096 13.4524C119.516 12.9724 120.014 12.5944 120.59 12.3184C121.166 12.0424 121.802 11.9044 122.498 11.9044C123.17 11.9044 123.752 12.0064 124.244 12.2104C124.748 12.4144 125.138 12.6844 125.414 13.0204C125.69 13.3564 125.828 13.7224 125.828 14.1184C125.828 14.3824 125.756 14.6104 125.612 14.8024C125.468 14.9824 125.258 15.0724 124.982 15.0724C124.682 15.0844 124.466 14.9944 124.334 14.8024C124.214 14.5984 124.154 14.4184 124.154 14.2624C124.154 14.1424 124.172 14.0224 124.208 13.9024C124.244 13.7704 124.316 13.6504 124.424 13.5424C124.328 13.2544 124.16 13.0444 123.92 12.9124C123.68 12.7684 123.428 12.6784 123.164 12.6424C122.912 12.5944 122.702 12.5704 122.534 12.5704C121.718 12.5704 121.028 12.9004 120.464 13.5604C119.912 14.2084 119.636 15.1564 119.636 16.4044C119.636 17.2084 119.762 17.9224 120.014 18.5464C120.278 19.1704 120.644 19.6624 121.112 20.0224C121.58 20.3704 122.12 20.5444 122.732 20.5444C123.296 20.5444 123.836 20.3944 124.352 20.0944C124.868 19.7944 125.27 19.4284 125.558 18.9964L126.026 19.3564C125.714 19.8604 125.336 20.2684 124.892 20.5804C124.46 20.8924 124.01 21.1204 123.542 21.2644C123.086 21.4084 122.654 21.4804 122.246 21.4804ZM131.63 21.4804C131.354 21.4804 131.072 21.4384 130.784 21.3544C130.496 21.2824 130.226 21.1324 129.974 20.9044C129.734 20.6764 129.542 20.3464 129.398 19.9144C129.254 19.4704 129.182 18.8884 129.182 18.1684L129.218 12.9484L127.832 12.9664V12.1924C128.144 12.1804 128.462 12.0664 128.786 11.8504C129.11 11.6224 129.398 11.3164 129.65 10.9324C129.914 10.5484 130.094 10.1284 130.19 9.67238H130.802V12.1924H133.826V12.8944L130.802 12.9304L130.766 17.9344C130.766 18.4744 130.808 18.9364 130.892 19.3204C130.988 19.6924 131.138 19.9744 131.342 20.1664C131.546 20.3584 131.81 20.4544 132.134 20.4544C132.47 20.4544 132.782 20.3584 133.07 20.1664C133.37 19.9744 133.634 19.7104 133.862 19.3744L134.348 19.7704C134.084 20.1664 133.82 20.4784 133.556 20.7064C133.304 20.9344 133.058 21.1024 132.818 21.2104C132.578 21.3304 132.356 21.4024 132.152 21.4264C131.948 21.4624 131.774 21.4804 131.63 21.4804ZM136.107 20.6524C136.479 20.6524 136.737 20.5624 136.881 20.3824C137.025 20.1904 137.109 19.9324 137.133 19.6084C137.157 19.2724 137.169 18.8884 137.169 18.4564V14.3524C137.169 14.1604 137.175 13.9804 137.187 13.8124C137.199 13.6324 137.217 13.4224 137.241 13.1824C137.025 13.1944 136.809 13.2064 136.593 13.2184C136.389 13.2304 136.179 13.2424 135.963 13.2544V12.4984C136.491 12.4984 136.899 12.4744 137.187 12.4264C137.475 12.3784 137.691 12.3184 137.835 12.2464C137.991 12.1744 138.111 12.0964 138.195 12.0124H138.717V19.2844C138.717 19.5244 138.711 19.7404 138.699 19.9324C138.699 20.1124 138.681 20.3044 138.645 20.5084C138.837 20.4964 139.023 20.4904 139.203 20.4904C139.395 20.4784 139.587 20.4664 139.779 20.4544V21.1924H136.107V20.6524ZM137.835 10.2304C137.583 10.2304 137.361 10.1284 137.169 9.92438C136.977 9.72038 136.881 9.46838 136.881 9.16838C136.881 8.86838 136.977 8.61638 137.169 8.41238C137.373 8.19638 137.601 8.08838 137.853 8.08838C138.129 8.08838 138.357 8.19638 138.537 8.41238C138.729 8.61638 138.825 8.86838 138.825 9.16838C138.825 9.46838 138.723 9.72038 138.519 9.92438C138.327 10.1284 138.099 10.2304 137.835 10.2304ZM146.533 21.4804C145.693 21.4804 144.931 21.2884 144.247 20.9044C143.563 20.5084 143.017 19.9684 142.609 19.2844C142.213 18.5884 142.015 17.7964 142.015 16.9084C142.015 15.9604 142.213 15.1084 142.609 14.3524C143.005 13.5964 143.545 13.0024 144.229 12.5704C144.913 12.1264 145.681 11.9044 146.533 11.9044C147.373 11.9044 148.135 12.1084 148.819 12.5164C149.503 12.9124 150.049 13.4524 150.457 14.1364C150.865 14.8204 151.069 15.6004 151.069 16.4764C151.069 17.4004 150.865 18.2464 150.457 19.0144C150.061 19.7704 149.521 20.3704 148.837 20.8144C148.153 21.2584 147.385 21.4804 146.533 21.4804ZM146.677 20.7604C147.313 20.7604 147.817 20.5804 148.189 20.2204C148.561 19.8604 148.825 19.3924 148.981 18.8164C149.149 18.2404 149.233 17.6344 149.233 16.9984C149.233 16.4584 149.179 15.9304 149.071 15.4144C148.975 14.8864 148.819 14.4124 148.603 13.9924C148.387 13.5604 148.105 13.2184 147.757 12.9664C147.421 12.7144 147.013 12.5884 146.533 12.5884C145.909 12.5884 145.399 12.7684 145.003 13.1284C144.607 13.4884 144.313 13.9564 144.121 14.5324C143.941 15.1084 143.851 15.7264 143.851 16.3864C143.851 17.1304 143.953 17.8384 144.157 18.5104C144.361 19.1704 144.673 19.7104 145.093 20.1304C145.513 20.5504 146.041 20.7604 146.677 20.7604ZM153.499 21.1924V20.6524C153.871 20.6524 154.129 20.5624 154.273 20.3824C154.417 20.1904 154.501 19.9324 154.525 19.6084C154.549 19.2724 154.561 18.8884 154.561 18.4564L154.579 14.3524C154.579 14.1604 154.579 13.9684 154.579 13.7764C154.591 13.5844 154.615 13.3864 154.651 13.1824C154.435 13.1944 154.219 13.2064 154.003 13.2184C153.799 13.2304 153.589 13.2424 153.373 13.2544V12.4984C153.901 12.4984 154.297 12.4744 154.561 12.4264C154.837 12.3784 155.041 12.3184 155.173 12.2464C155.305 12.1744 155.413 12.0964 155.497 12.0124H156.019C156.031 12.0964 156.037 12.1924 156.037 12.3004C156.049 12.4084 156.061 12.5284 156.073 12.6604C156.085 12.7924 156.091 12.9424 156.091 13.1104C156.355 12.8824 156.643 12.6784 156.955 12.4984C157.279 12.3184 157.615 12.1744 157.963 12.0664C158.323 11.9584 158.677 11.9044 159.025 11.9044C160.069 11.9044 160.831 12.2344 161.311 12.8944C161.791 13.5424 162.031 14.5564 162.031 15.9364V19.2844C162.031 19.5244 162.025 19.7404 162.013 19.9324C162.013 20.1124 161.995 20.3044 161.959 20.5084C162.151 20.4964 162.337 20.4904 162.517 20.4904C162.709 20.4784 162.901 20.4664 163.093 20.4544V21.1924H159.421V20.6524C159.793 20.6524 160.051 20.5624 160.195 20.3824C160.339 20.1904 160.423 19.9324 160.447 19.6084C160.471 19.2724 160.483 18.8884 160.483 18.4564V15.9364C160.471 14.9044 160.297 14.1244 159.961 13.5964C159.637 13.0684 159.121 12.8104 158.413 12.8224C157.981 12.8344 157.555 12.9484 157.135 13.1644C156.727 13.3804 156.385 13.6564 156.109 13.9924C156.121 14.0884 156.127 14.1964 156.127 14.3164C156.127 14.4364 156.127 14.5624 156.127 14.6944L156.109 19.2844C156.109 19.5244 156.103 19.7404 156.091 19.9324C156.091 20.1124 156.073 20.3044 156.037 20.5084C156.229 20.4964 156.415 20.4904 156.595 20.4904C156.787 20.4784 156.979 20.4664 157.171 20.4544V21.1924H153.499Z" fill="#FAFAFA"/>
</g>
<defs>
<clipPath id="clip0_102_308">
<rect width="163.65" height="30" fill="white" transform="translate(0.892578)"/>
</clipPath>
</defs>
</svg>
