<svg width="109" height="19" viewBox="0 0 109 19" fill="none" xmlns="http://www.w3.org/2000/svg">
<g clip-path="url(#clip0_102_822)">
<path d="M9.98438 2.30078C8.56592 2.30078 7.17931 2.7214 5.9999 3.50946C4.82049 4.29752 3.90125 5.41761 3.35843 6.7281C2.81561 8.03859 2.67358 9.48061 2.95031 10.8718C3.22704 12.263 3.91009 13.5409 4.9131 14.5439C5.9161 15.5469 7.19401 16.23 8.58521 16.5067C9.97642 16.7835 11.4184 16.6414 12.7289 16.0986C14.0394 15.5558 15.1595 14.6365 15.9476 13.4571C16.7356 12.2777 17.1563 10.8911 17.1563 9.47266C17.154 7.57124 16.3977 5.74834 15.0532 4.40384C13.7087 3.05934 11.8858 2.30301 9.98438 2.30078ZM10.4063 15.7867V11.0195H12.2344C12.3463 11.0195 12.4536 10.9751 12.5327 10.896C12.6118 10.8169 12.6563 10.7095 12.6563 10.5977C12.6563 10.4858 12.6118 10.3785 12.5327 10.2993C12.4536 10.2202 12.3463 10.1758 12.2344 10.1758H10.4063V8.34766C10.4063 8.01199 10.5396 7.69007 10.7769 7.45272C11.0143 7.21537 11.3362 7.08203 11.6719 7.08203H12.7969C12.9088 7.08203 13.0161 7.03758 13.0952 6.95847C13.1743 6.87935 13.2188 6.77204 13.2188 6.66016C13.2188 6.54827 13.1743 6.44096 13.0952 6.36185C13.0161 6.28273 12.9088 6.23828 12.7969 6.23828H11.6719C11.1124 6.23828 10.5759 6.46052 10.1803 6.8561C9.78474 7.25169 9.5625 7.78822 9.5625 8.34766V10.1758H7.73438C7.62249 10.1758 7.51518 10.2202 7.43607 10.2993C7.35695 10.3785 7.3125 10.4858 7.3125 10.5977C7.3125 10.7095 7.35695 10.8169 7.43607 10.896C7.51518 10.9751 7.62249 11.0195 7.73438 11.0195H9.5625V15.7867C7.92438 15.6773 6.39291 14.9355 5.29151 13.7179C4.19012 12.5004 3.60502 10.9025 3.65977 9.26162C3.71453 7.62075 4.40486 6.06539 5.58497 4.924C6.76508 3.78262 8.3426 3.14455 9.98438 3.14455C11.6262 3.14455 13.2037 3.78262 14.3838 4.924C15.5639 6.06539 16.2542 7.62075 16.309 9.26162C16.3637 10.9025 15.7786 12.5004 14.6772 13.7179C13.5758 14.9355 12.0444 15.6773 10.4063 15.7867Z" fill="#FAFAFA"/>
<path d="M39.9844 6.23828C39.3447 6.23828 38.7193 6.42797 38.1875 6.78337C37.6556 7.13877 37.241 7.64391 36.9962 8.23491C36.7514 8.82592 36.6873 9.47624 36.8121 10.1037C36.9369 10.7311 37.245 11.3074 37.6973 11.7597C38.1497 12.212 38.726 12.5201 39.3534 12.6449C39.9808 12.7697 40.6311 12.7056 41.2221 12.4608C41.8131 12.216 42.3183 11.8015 42.6737 11.2696C43.0291 10.7377 43.2188 10.1124 43.2188 9.47266C43.2176 8.61519 42.8765 7.79316 42.2702 7.18684C41.6639 6.58052 40.8418 6.2394 39.9844 6.23828ZM39.9844 11.8633C39.5116 11.8633 39.0494 11.7231 38.6562 11.4604C38.2631 11.1977 37.9567 10.8243 37.7757 10.3875C37.5948 9.95068 37.5474 9.47 37.6397 9.00627C37.7319 8.54253 37.9596 8.11656 38.2939 7.78223C38.6283 7.44789 39.0543 7.22021 39.518 7.12797C39.9817 7.03572 40.4624 7.08307 40.8992 7.26401C41.3361 7.44495 41.7094 7.75136 41.9721 8.1445C42.2348 8.53763 42.375 8.99984 42.375 9.47266C42.375 10.1067 42.1231 10.7148 41.6748 11.1631C41.2265 11.6114 40.6184 11.8633 39.9844 11.8633ZM43.3594 2.30078H36.6094C35.6027 2.3019 34.6376 2.70228 33.9258 3.41409C33.214 4.1259 32.8136 5.09101 32.8125 6.09766V12.8477C32.8136 13.8543 33.214 14.8194 33.9258 15.5312C34.6376 16.243 35.6027 16.6434 36.6094 16.6445H43.3594C44.366 16.6434 45.3311 16.243 46.0429 15.5312C46.7547 14.8194 47.1551 13.8543 47.1562 12.8477V6.09766C47.1551 5.09101 46.7547 4.1259 46.0429 3.41409C45.3311 2.70228 44.366 2.3019 43.3594 2.30078ZM46.3125 12.8477C46.3125 13.6309 46.0014 14.382 45.4475 14.9358C44.8937 15.4896 44.1426 15.8008 43.3594 15.8008H36.6094C35.8262 15.8008 35.075 15.4896 34.5212 14.9358C33.9674 14.382 33.6562 13.6309 33.6562 12.8477V6.09766C33.6562 5.31444 33.9674 4.5633 34.5212 4.00948C35.075 3.45566 35.8262 3.14453 36.6094 3.14453H43.3594C44.1426 3.14453 44.8937 3.45566 45.4475 4.00948C46.0014 4.5633 46.3125 5.31444 46.3125 6.09766V12.8477ZM44.3438 5.81641C44.3438 5.95547 44.3025 6.09141 44.2253 6.20704C44.148 6.32267 44.0382 6.41279 43.9097 6.46601C43.7812 6.51923 43.6398 6.53315 43.5035 6.50602C43.3671 6.47889 43.2418 6.41192 43.1434 6.31359C43.0451 6.21526 42.9781 6.08997 42.951 5.95358C42.9239 5.81719 42.9378 5.67581 42.991 5.54733C43.0442 5.41885 43.1344 5.30904 43.25 5.23178C43.3656 5.15452 43.5016 5.11328 43.6406 5.11328C43.8271 5.11328 44.0059 5.18736 44.1378 5.31922C44.2697 5.45108 44.3438 5.62993 44.3438 5.81641Z" fill="#FAFAFA"/>
<path d="M72.4685 9.12111L69.0935 6.87111C69.0299 6.82869 68.956 6.80434 68.8797 6.80066C68.8034 6.79698 68.7275 6.8141 68.6601 6.8502C68.5927 6.8863 68.5364 6.94002 68.4972 7.00562C68.458 7.07122 68.4374 7.14625 68.4375 7.22267V11.7227C68.4374 11.7991 68.458 11.8741 68.4972 11.9397C68.5364 12.0053 68.5927 12.059 68.6601 12.0951C68.7275 12.1312 68.8034 12.1484 68.8797 12.1447C68.956 12.141 69.0299 12.1166 69.0935 12.0742L72.4685 9.82423C72.5265 9.78575 72.5741 9.73351 72.607 9.67217C72.64 9.61083 72.6572 9.54229 72.6572 9.47267C72.6572 9.40305 72.64 9.33452 72.607 9.27318C72.5741 9.21183 72.5265 9.15959 72.4685 9.12111ZM69.2812 10.9345V8.01087L71.4736 9.47267L69.2812 10.9345ZM77.325 5.39455C77.264 5.15738 77.1475 4.9381 76.9851 4.75475C76.8228 4.57139 76.6193 4.42919 76.3912 4.33986C73.9922 3.41103 70.144 3.4258 69.9844 3.4258C69.8248 3.4258 65.9766 3.41103 63.5747 4.33986C63.3472 4.42956 63.1442 4.57192 62.9824 4.75525C62.8206 4.93859 62.7045 5.15768 62.6438 5.39455C62.4645 6.08994 62.25 7.3633 62.25 9.47267C62.25 11.582 62.4645 12.8554 62.6438 13.5508C62.7048 13.788 62.8213 14.0072 62.9836 14.1906C63.1459 14.374 63.3495 14.5161 63.5775 14.6055C65.9766 15.5343 69.8241 15.5195 69.9844 15.5195H70.0343C70.5202 15.5195 74.1124 15.4886 76.3941 14.6055C76.6221 14.5161 76.8256 14.374 76.988 14.1906C77.1503 14.0072 77.2668 13.788 77.3278 13.5508C77.5071 12.8568 77.7216 11.587 77.7216 9.47267C77.7216 7.35837 77.5078 6.08994 77.325 5.39455ZM76.508 13.3399C76.4809 13.4479 76.4285 13.548 76.3552 13.6319C76.2818 13.7157 76.1896 13.781 76.0861 13.8222C73.8361 14.6892 70.0252 14.6758 69.9844 14.6758C69.9436 14.6758 66.1376 14.6899 63.8848 13.8201C63.7813 13.7789 63.689 13.7136 63.6157 13.6298C63.5423 13.5459 63.49 13.4458 63.4629 13.3377C63.2934 12.6916 63.0938 11.4963 63.0938 9.47267C63.0938 7.44908 63.2934 6.25376 63.4608 5.60548C63.4879 5.49741 63.5402 5.39732 63.6136 5.31346C63.6869 5.2296 63.7792 5.16436 63.8827 5.12314C66.0511 4.28783 69.6701 4.26955 69.9675 4.26955H69.9844C70.0223 4.26955 73.8312 4.25548 76.084 5.12525C76.1875 5.16647 76.2797 5.23171 76.3531 5.31557C76.4264 5.39943 76.4788 5.49952 76.5059 5.60759C76.6732 6.25376 76.8729 7.44908 76.8729 9.47478C76.8729 11.5005 76.6753 12.6916 76.508 13.3399Z" fill="#FAFAFA"/>
<path d="M108.249 5.3744C108.217 5.29727 108.163 5.23131 108.094 5.18488C108.024 5.13845 107.943 5.11362 107.859 5.11354H105.637C105.356 4.60655 104.946 4.18322 104.448 3.88676C103.949 3.5903 103.381 3.43132 102.802 3.42604C102.381 3.42064 101.963 3.49947 101.573 3.6579C101.183 3.81632 100.828 4.05113 100.53 4.34854C100.223 4.64996 99.9789 5.00976 99.8128 5.40678C99.6466 5.8038 99.5615 6.23003 99.5625 6.66042V7.26932C96.6094 6.5662 94.1766 4.13901 94.1484 4.1137C94.0918 4.05743 94.0203 4.0184 93.9423 4.00114C93.8644 3.98388 93.7831 3.98911 93.708 4.01621C93.6329 4.04331 93.567 4.09117 93.518 4.15423C93.469 4.21729 93.4389 4.29296 93.4313 4.37245C93.1324 7.6926 94.0936 9.90956 94.9528 11.185C95.397 11.8532 95.9445 12.4465 96.5749 12.9428C95.4858 14.2788 93.6682 14.9742 93.6485 14.9819C93.5885 15.0041 93.5343 15.0397 93.49 15.086C93.4458 15.1323 93.4126 15.188 93.3931 15.249C93.3736 15.31 93.3682 15.3746 93.3774 15.4379C93.3866 15.5013 93.41 15.5618 93.446 15.6147C93.5156 15.7188 94.2033 16.6448 96.6094 16.6448C101.523 16.6448 105.626 12.8479 106.019 7.97245L108.158 5.83424C108.217 5.77523 108.257 5.70004 108.273 5.61819C108.289 5.53634 108.281 5.45149 108.249 5.3744ZM105.311 7.48729C105.239 7.55978 105.195 7.65627 105.188 7.7587C104.901 12.2685 101.133 15.801 96.6094 15.801C95.625 15.801 95.0091 15.6316 94.6364 15.4635C95.4309 15.0642 96.7261 14.2767 97.5227 13.0821C97.5545 13.0343 97.5762 12.9805 97.5865 12.924C97.5967 12.8676 97.5954 12.8096 97.5825 12.7537C97.5695 12.6974 97.545 12.6444 97.5107 12.598C97.4763 12.5515 97.4328 12.5126 97.3828 12.4837C97.3737 12.4781 96.4596 11.931 95.625 10.6753C94.6406 9.19167 94.1702 7.39378 94.2188 5.31604C95.265 6.20198 97.4229 7.78331 99.9141 8.19885C99.9746 8.20908 100.037 8.20599 100.096 8.18978C100.155 8.17357 100.21 8.14464 100.257 8.105C100.304 8.06537 100.341 8.01599 100.367 7.96031C100.393 7.90462 100.406 7.84398 100.406 7.7826V6.66042C100.406 6.3418 100.469 6.02627 100.592 5.73237C100.715 5.43847 100.895 5.17213 101.123 4.94901C101.342 4.73035 101.602 4.55764 101.889 4.441C102.175 4.32437 102.483 4.26616 102.792 4.26979C103.736 4.28174 104.62 4.85831 104.989 5.70417C105.021 5.77941 105.075 5.84344 105.144 5.8884C105.213 5.93336 105.293 5.9573 105.375 5.95729H106.841L105.311 7.48729Z" fill="#FAFAFA"/>
</g>
<defs>
<clipPath id="clip0_102_822">
<rect width="108" height="18" fill="white" transform="translate(0.984375 0.473633)"/>
</clipPath>
</defs>
</svg>
